<?xml version="1.0" encoding="UTF-8" standalone="no"?>
<svg
   xmlns:dc="http://purl.org/dc/elements/1.1/"
   xmlns:cc="http://creativecommons.org/ns#"
   xmlns:rdf="http://www.w3.org/1999/02/22-rdf-syntax-ns#"
   xmlns:svg="http://www.w3.org/2000/svg"
   xmlns="http://www.w3.org/2000/svg"
   xmlns:sodipodi="http://sodipodi.sourceforge.net/DTD/sodipodi-0.dtd"
   xmlns:inkscape="http://www.inkscape.org/namespaces/inkscape"
   version="1.0"
   width="17.280001mm"
   height="26.09mm"
   id="svg2"
   inkscape:version="0.91 r"
   viewBox="0 0 17.280001 26.09"
   sodipodi:docname="blue_orange.svg">
  <metadata
     id="metadata265">
    <rdf:RDF>
      <cc:Work
         rdf:about="">
        <dc:format>image/svg+xml</dc:format>
        <dc:type
           rdf:resource="http://purl.org/dc/dcmitype/StillImage" />
        <dc:title></dc:title>
      </cc:Work>
    </rdf:RDF>
  </metadata>
  <sodipodi:namedview
     pagecolor="#ffffff"
     bordercolor="#666666"
     borderopacity="1"
     objecttolerance="10"
     gridtolerance="10"
     guidetolerance="10"
     inkscape:pageopacity="0"
     inkscape:pageshadow="2"
     inkscape:window-width="848"
     inkscape:window-height="480"
     id="namedview263"
     inkscape:document-units="mm"
     showgrid="false"
     inkscape:zoom="2.5528725"
     inkscape:cx="30.614174"
     inkscape:cy="46.222441"
     inkscape:window-x="165"
     inkscape:window-y="71"
     inkscape:window-maximized="0"
     inkscape:current-layer="svg2" />
  <defs
     id="defs4">
    <pattern
       id="EMFhbasepattern"
       patternUnits="userSpaceOnUse"
       width="6"
       height="6"
       x="0"
       y="0" />
  </defs>
  <path
     style="fill:#757e78;fill-opacity:1;fill-rule:evenodd;stroke:none"
     d="m 11.625947,21.705485 c -0.4607,0.533061 -1.019387,0.85883 -1.6957323,1.076 -2.8033698,0.898285 -5.3812723,0.355374 -7.8611815,-1.076 -0.3724769,-0.21717 -0.6665355,-0.542911 -0.9017818,-0.898286 -0.049011,-0.286286 0.1568308,-0.26653 0.3234633,-0.276408 1.1762373,0.86868 2.430876,1.589306 3.9011973,1.836081 1.960372,0.197443 3.9109791,0.37513 5.636119,-0.91804 0.156831,-0.118449 0.343069,-0.197415 0.548922,-0.207293 0.156831,0.02961 0.274433,0.09872 0.245025,0.286258 l -0.0098,0 c -0.09802,0.01976 -0.147037,0.09872 -0.186238,0.177688 z"
     id="path7"
     inkscape:connector-curvature="0" />
  <path
     style="fill:#647877;fill-opacity:1;fill-rule:evenodd;stroke:none"
     d="M 2.7159627,9.5932688 C 2.6179413,8.3790641 2.9217902,7.2142483 3.2354802,6.0592821 3.3726967,5.5163712 3.6765653,5.0227928 4.0392209,4.578575 4.1274436,4.5390921 4.1960518,4.4897314 4.2156662,4.3811606 l -0.00979,0 C 4.362704,4.3021948 4.5489424,4.0553914 4.6763658,4.4206434 4.6567513,5.0030654 4.2254593,5.3880448 4.0392209,5.8914728 3.8725969,6.3258128 3.7941673,6.7897861 3.6961516,7.2438534 3.5197344,7.8361532 3.5393207,8.4876632 3.2648596,9.0602074 3.0198342,9.1885339 2.9904267,9.0108468 2.9610191,8.8331597 c -0.019614,-0.1085709 -0.1666409,0.078966 -0.088223,0 0.019614,-0.019727 0.029408,-0.00988 0.039201,0.029605 0.07843,0.2862862 0.2548467,0.5922998 -0.1960344,0.730504 z"
     id="path9"
     inkscape:connector-curvature="0" />
  <path
     style="fill:#76807b;fill-opacity:1;fill-rule:evenodd;stroke:none"
     d="m 0.52032182,19.78056 c -0.54891093,-1.016734 -0.62732666,-2.12234 -0.49009921,-3.237823 0.06861387,-0.503428 0.12742559,-1.016762 0.41168377,-1.470829 0.1960372,0.01973 0.36267249,0.07897 0.46069109,0.26653 -0.14702931,1.204299 -0.33326776,2.408626 -0.0490107,3.622802 0.019606,0.118449 0.0294075,0.246775 0.0686139,0.365252 0.019606,0.06909 0.0392091,0.148054 0.0588123,0.227048 0.0392091,0.148054 0.0882199,0.286258 0.12742619,0.44419 0.019603,0.06912 0.029405,0.148082 0.029405,0.227047 -0.019603,0.118477 -0.058809,0.227048 -0.17643404,0.296136 -0.0490107,-0.06909 -0.107823,-0.128326 -0.15683089,-0.197414 -0.0294076,-0.06909 -0.088217,-0.128327 -0.12742616,-0.197443 C 0.63794358,20.086573 0.628142,20.037213 0.628142,19.98788 0.59873727,19.918764 0.55952813,19.849676 0.52032182,19.78056 Z"
     id="path11"
     inkscape:connector-curvature="0" />
  <path
     style="fill:#7c837c;fill-opacity:1;fill-rule:evenodd;stroke:none"
     d="m 13.47851,14.943581 c 0.245054,0.345497 0.284282,0.750232 0.303869,1.135211 0.04902,1.08585 0.0098,2.1717 -0.470493,3.178584 -0.333276,0.0099 -0.303869,-0.256653 -0.362656,-0.463945 -0.0098,-0.177687 0,-0.345496 0.01959,-0.523184 0.0098,-0.08884 0.02941,-0.167809 0.04902,-0.256652 0.107809,-0.315892 0.08822,-0.641661 0.08822,-0.97728 0,-0.118448 0,-0.236925 0,-0.365252 0,-0.355374 0.02941,-0.720598 -0.04902,-1.066094 -0.01961,-0.07899 -0.02941,-0.167838 -0.0392,-0.246803 0.0098,-0.07897 0.01959,-0.157932 0.05881,-0.236898 0.09802,-0.138204 0.205824,-0.246803 0.401856,-0.177687 z"
     id="path13"
     inkscape:connector-curvature="0" />
  <path
     style="fill:#7e6755;fill-opacity:1;fill-rule:evenodd;stroke:none"
     d="M 6.4504993,1.4690844 C 6.3132829,1.1926844 6.4799069,0.98538376 6.6171516,0.76821094 6.7739824,0.54116881 7.019036,0.46219738 7.2542682,0.35361238 c 0.058815,-0.0296136 0.1666522,0 0.2352605,0.0296136 0.215646,0.0789714 0.4116775,0.18755642 0.5391009,0.39485711 C 8.0874447,0.92615378 7.999222,0.99525589 7.8914131,1.054483 7.6757671,1.1433266 7.2640896,0.99525589 7.3130833,1.3802409 7.352284,1.7553537 7.7933691,1.5677973 8.0286296,1.6961266 8.2736831,1.7652258 8.214868,2.0416258 8.3716989,2.1699551 l 0,0 c 0.049022,0.1579428 -0.049022,0.2467836 -0.1764453,0.3060135 -0.166624,0.069099 -0.3430694,0.088844 -0.5194865,0.078972 -0.1862384,0 -0.3528907,-0.019744 -0.5293078,-0.078972 C 6.6171516,2.3476394 6.587744,1.8738108 6.4504993,1.4690844 Z"
     id="path15"
     inkscape:connector-curvature="0" />
  <path
     style="fill:#757e79;fill-opacity:1;fill-rule:evenodd;stroke:none"
     d="m 6.4504993,1.4690844 c 0.039229,0.039486 0.1078371,0.069099 0.1176303,0.1184543 0.068608,0.3455021 0.3038686,0.5528 0.5881228,0.720615 C 7.0680298,2.5154544 6.8622051,2.5549401 6.6955529,2.6536529 6.0976369,2.9794192 5.7055738,3.5223301 5.2448742,3.9764257 5.0586358,4.1639906 4.9704131,4.509487 4.5881431,4.4008879 4.4705129,4.2330786 4.3332964,4.4206434 4.2058731,4.3811606 4.2842744,4.0060308 4.529328,3.7296506 4.7743816,3.4631199 5.2056736,2.9794192 5.6369373,2.4858408 6.1956527,2.1304694 6.4701138,1.9626544 6.4603207,1.7356123 6.4504993,1.4690844 Z"
     id="path17"
     inkscape:connector-curvature="0" />
  <path
     style="fill:#717f7b;fill-opacity:1;fill-rule:evenodd;stroke:none"
     d="M 8.165846,2.3673836 8.3716989,2.1699551 c 0.1568309,0.1184571 0.3038687,0.2467836 0.4704927,0.3553714 0.9115777,0.6120243 1.4212994,1.5103376 1.7349614,2.5369492 0.05879,0.1875649 0.107809,0.3751297 0.166624,0.5725442 -0.09802,0.088844 -0.215646,0.1184487 -0.352863,0.098721 C 9.9204216,5.5163712 9.9498291,4.9931877 9.7537693,4.6082083 9.5577378,4.2429563 9.4107,3.8382214 9.1264458,3.5322079 8.8323984,3.1176234 8.1560529,3.0189021 8.165846,2.3673836 Z"
     id="path19"
     inkscape:connector-curvature="0" />
  <path
     style="fill:#717e7d;fill-opacity:1;fill-rule:evenodd;stroke:none"
     d="m 11.302492,9.2378946 c 0.421471,0.6317544 0.84297,1.2635374 1.254647,1.8953194 0.235261,0.355375 0.470493,0.710721 0.686139,1.066095 0.05881,0.09872 0.05881,0.21717 0.0784,0.325769 -0.08819,0.09872 -0.205825,0.118449 -0.333248,0.08884 -0.744954,-0.562666 -1.07823,-1.451102 -1.617331,-2.171728 -0.127423,-0.187536 -0.23526,-0.375101 -0.362684,-0.5626662 -0.04899,-0.05921 -0.08819,-0.1283265 -0.127423,-0.1875367 -0.0392,-0.069116 -0.05882,-0.148082 -0.06861,-0.2270478 0.0098,-0.1184769 0.04902,-0.2270477 0.166624,-0.296164 0.11763,-0.039483 0.225467,-0.00985 0.323483,0.069116 z"
     id="path21"
     inkscape:connector-curvature="0" />
  <path
     style="fill:#5d6c67;fill-opacity:1;fill-rule:evenodd;stroke:none"
     d="m 12.988431,12.534956 0.333248,-0.0099 c 0.235261,0.266531 0.333276,0.592271 0.372477,0.937768 0.04902,0.355374 -0.06861,0.612055 -0.362656,0.799592 -0.04902,0.02963 -0.06861,0.06912 -0.05882,0.108599 0.0098,0.03948 0.01961,0.05921 0.02941,0.05921 0.02941,0.04936 0.0392,0.09872 0.0392,0.148082 0.0392,0.05924 0.07843,0.128327 0.107837,0.197443 0.0098,0.05921 0.01959,0.108571 0.02938,0.167809 l -0.30384,0.16781 c -0.05882,-0.02961 -0.107838,-0.07897 -0.147038,-0.138205 -0.05882,-0.118448 -0.11763,-0.236925 -0.196032,-0.345496 -0.137244,-0.167809 -0.284254,-0.325769 -0.362684,-0.533061 -0.107808,-0.266531 0,-0.43434 0.245054,-0.54294 0.225439,-0.09869 0.23526,-0.306013 0.23526,-0.523183 -0.01961,-0.09869 -0.02941,-0.207292 -0.03923,-0.315863 0,-0.06912 0.02941,-0.128327 0.07843,-0.177687 z"
     id="path23"
     inkscape:connector-curvature="0" />
  <path
     style="fill:#5d726f;fill-opacity:1;fill-rule:evenodd;stroke:none"
     d="m 11.302492,9.2378946 c -0.11763,0.00988 -0.245054,0.00988 -0.362684,0.019727 -0.392063,-0.1579316 -0.38227,-0.503428 -0.411677,-0.8291971 0,-0.1776871 0,-0.3652238 -0.0098,-0.5429109 -0.01961,-0.43434 -0.176446,-0.8489527 -0.156831,-1.2832927 0,-0.21717 -0.02941,-0.4244622 -0.06864,-0.6219049 -0.0098,-0.1382042 0.0098,-0.2566529 0.107837,-0.3553742 0.107809,0 0.225439,0 0.34307,0.00988 0.245053,0.582422 0.333276,1.2043269 0.372477,1.8459591 0.176445,0.5231836 -0.05882,1.0759722 0.147037,1.5991558 0.02941,0.049361 0.04899,0.098721 0.0392,0.1579598 z"
     id="path25"
     inkscape:connector-curvature="0" />
  <path
     style="fill:#64716e;fill-opacity:1;fill-rule:evenodd;stroke:none"
     d="M 2.7159627,9.5932688 C 2.8727964,9.4747919 2.8727964,9.3069826 2.8727964,9.1391732 c 0,-0.1382042 0,-0.2764084 0,-0.4145844 0.2352323,0.029605 0.1568309,0.3060135 0.3332763,0.355346 0.098016,0.088843 0.117602,0.1974426 0.117602,0.3158913 -0.029408,0.148082 -0.068608,0.3060136 -0.098016,0.4540956 C 3.068828,10.40271 2.6375473,10.728479 2.2160625,11.064098 c -0.1372277,0.09872 -0.2744555,0.197443 -0.3724769,0.345497 -0.029405,0.05924 -0.068611,0.118476 -0.1078202,0.177687 -0.049011,0.08884 -0.107823,0.177687 -0.1666324,0.256653 -0.058812,0.04936 -0.1274262,0.07899 -0.19604,0.08884 -0.1470294,-0.01973 -0.3038602,-0.03948 -0.2254448,-0.256653 l 0.0098,-0.01973 c 0.078415,-0.05924 0.1372277,-0.118477 0.1470293,-0.21717 -0.0098,-0.05924 0.0098,-0.09872 0.049011,-0.118477 0.049008,-0.05921 0.098019,-0.128326 0.1274233,-0.207292 0.098021,-0.296136 0.3332678,-0.523184 0.548911,-0.700871 0.2940586,-0.236925 0.480297,-0.5231834 0.6861386,-0.8193192 z"
     id="path27"
     inkscape:connector-curvature="0" />
  <path
     style="fill:#818884;fill-opacity:1;fill-rule:evenodd;stroke:none"
     d="m 13.125648,18.69471 c 0.0392,0.197442 -0.0098,0.424462 0.186238,0.562666 -0.274461,0.898313 -0.725339,1.688028 -1.489908,2.270421 -0.08819,-0.07897 -0.176417,-0.148053 -0.264639,-0.227019 0.401884,-0.868708 0.9998,-1.638667 1.342869,-2.536952 0.06861,-0.05924 0.137217,-0.07899 0.22544,-0.06912 z"
     id="path29"
     inkscape:connector-curvature="0" />
  <path
     style="fill:#6b7777;fill-opacity:1;fill-rule:evenodd;stroke:none"
     d="m 1.1476482,11.676125 c 0.078415,0.128327 0.2058416,0.15796 0.3528709,0.16781 0.2058416,0.730504 -0.3528709,1.174721 -0.63712794,1.72751 -0.48029707,0.08884 -0.2058416,-0.375102 -0.36267532,-0.513306 0.11762458,-0.513334 0.28425987,-0.997034 0.64693236,-1.382014 z"
     id="path31"
     inkscape:connector-curvature="0" />
  <path
     style="fill:#63706a;fill-opacity:1;fill-rule:evenodd;stroke:none"
     d="m 0.80457887,15.289078 c -0.16663529,0 -0.29405863,-0.05924 -0.36267249,-0.21717 0.009802,-0.207293 0.15683089,-0.355375 0.26465106,-0.513334 0.0980214,-0.138176 0.17643687,-0.286258 0.107823,-0.463945 0.0294047,-0.02961 0.0588123,-0.05924 0.088217,-0.07897 0.27445543,-0.06912 0.48029703,0.02961 0.64692953,0.246775 -0.068614,0.483701 -0.2744555,0.848953 -0.74494813,1.02664 z"
     id="path33"
     inkscape:connector-curvature="0" />
  <path
     style="fill:#828272;fill-opacity:1;fill-rule:evenodd;stroke:none"
     d="M 8.3716989,2.1699551 C 8.2344824,2.0416258 8.0874447,1.9231687 7.9502,1.7948394 7.8031904,1.5579252 7.7541684,1.2913973 7.832598,1.0149973 7.9012062,0.93602592 7.9698144,0.85705449 8.0286296,0.77808307 8.381492,1.0446109 8.5187367,1.390113 8.4011064,1.824453 8.3716989,1.9330408 8.381492,2.051498 8.3716989,2.1699551 Z"
     id="path35"
     inkscape:connector-curvature="0" />
  <path
     style="fill:#63706a;fill-opacity:1;fill-rule:evenodd;stroke:none"
     d="m 0.50071584,13.058139 c 0.19604003,0.108571 0.0980214,0.394857 0.29406145,0.513306 0.14702931,-0.0099 0.28425701,0.01976 0.39207721,0.138204 0.068614,0.276409 -0.176434,0.256653 -0.31366177,0.335619 l -0.0588123,0.04936 c -0.23524633,0.0099 -0.35287091,-0.118449 -0.4116832,-0.325741 -0.0686139,-0.246804 -0.0196032,-0.483701 0.0980186,-0.710749 z"
     id="path37"
     inkscape:connector-curvature="0" />
  <path
     style="fill:#717e7d;fill-opacity:1;fill-rule:evenodd;stroke:none"
     d="M 11.263291,9.0799348 C 11.116254,8.9614861 11.096639,8.8035546 11.096639,8.6357452 c 0.0098,-0.3850075 0.01961,-0.7699869 0.01961,-1.1549662 0.137216,0.1678093 0.147037,0.365252 0.147037,0.5626664 0.0098,0.3454965 0,0.6909929 0,1.0364894 z"
     id="path39"
     inkscape:connector-curvature="0" />
  <path
     style="fill:#7b8986;fill-opacity:1;fill-rule:evenodd;stroke:none"
     d="m 0.96140976,20.520913 c 0.0196032,-0.148054 0.0392091,-0.306013 0.0588122,-0.454067 0.3234634,0.05921 0.5587126,0.177687 0.4508896,0.582422 -0.1274262,0 -0.245048,0.01973 -0.3038602,0.157931 -0.1274262,-0.04936 -0.18623849,-0.157931 -0.20584164,-0.286286 z"
     id="path41"
     inkscape:connector-curvature="0" />
  <path
     style="fill:#6b7777;fill-opacity:1;fill-rule:evenodd;stroke:none"
     d="m 1.3044791,11.439228 c 0,0.09869 -0.049011,0.177687 -0.1470293,0.21717 0.049008,-0.06912 0.098019,-0.148082 0.1470293,-0.21717 z"
     id="path43"
     inkscape:connector-curvature="0" />
  <path
     style="fill:#757e79;fill-opacity:1;fill-rule:evenodd;stroke:none"
     d="M 4.2156662,4.3811606 C 4.2058731,4.4897314 4.147058,4.5489699 4.0392209,4.578575 4.0588353,4.4798537 4.1078291,4.4107657 4.2156662,4.3811606 Z"
     id="path45"
     inkscape:connector-curvature="0" />
  <path
     style="fill:#7c837c;fill-opacity:1;fill-rule:evenodd;stroke:none"
     d="m 13.302093,14.430247 c -0.05881,-0.02961 -0.07843,-0.07897 -0.04902,-0.128326 0.01961,-0.01973 0.04902,-0.02961 0.07843,-0.03948 -0.0098,0.05924 -0.01961,0.108599 -0.02941,0.167809 z"
     id="path47"
     inkscape:connector-curvature="0" />
  <path
     style="fill:#818884;fill-opacity:1;fill-rule:evenodd;stroke:none"
     d="m 11.625947,21.705485 c 0.01961,-0.09869 0.07843,-0.157932 0.186238,-0.177688 -0.01959,0.09872 -0.08822,0.15796 -0.186238,0.177688 z"
     id="path49"
     inkscape:connector-curvature="0" />
  <path
     style="fill:#7b8986;fill-opacity:1;fill-rule:evenodd;stroke:none"
     d="m 0.67715271,20.126056 c 0.0392091,0.06912 0.0784155,0.138204 0.12742616,0.197443 -0.0784154,-0.03948 -0.12742616,-0.09872 -0.12742616,-0.197443 z"
     id="path51"
     inkscape:connector-curvature="0" />
  <path
     style="fill:#7c837c;fill-opacity:1;fill-rule:evenodd;stroke:none"
     d="m 13.449131,14.775772 c -0.07843,-0.03951 -0.117631,-0.108599 -0.107837,-0.197443 0.07843,0.03948 0.127423,0.09872 0.107837,0.197443 z"
     id="path53"
     inkscape:connector-curvature="0" />
  <path
     style="fill:#6b7777;fill-opacity:1;fill-rule:evenodd;stroke:none"
     d="m 1.4809131,11.113459 c 0,0.09872 -0.049008,0.167809 -0.1274233,0.207292 -0.0098,-0.09869 0.039206,-0.157932 0.1274233,-0.207292 z"
     id="path55"
     inkscape:connector-curvature="0" />
  <path
     style="fill:#7b8986;fill-opacity:1;fill-rule:evenodd;stroke:none"
     d="m 0.52032182,19.78056 c 0.0392063,0.06912 0.0784154,0.138204 0.10782018,0.20732 -0.0294047,-0.06912 -0.0686139,-0.138204 -0.10782018,-0.20732 z"
     id="path57"
     inkscape:connector-curvature="0" />
  <path
     style="fill:#e6f7f9;fill-opacity:1;fill-rule:evenodd;stroke:none"
     d="M 1.4711116,20.649268 C 1.373093,20.412342 1.1966561,20.244533 1.020222,20.066846 c 0,-0.03948 -0.0098,-0.07897 -0.0392091,-0.118449 -0.0980186,-0.108599 -0.0686139,-0.256681 -0.14702931,-0.37513 0,-0.05924 -0.0196032,-0.09872 -0.0588123,-0.148082 -0.0294047,-0.07897 -0.0196031,-0.157931 0.009804,-0.227019 0.24504789,-0.454096 0.30386019,-0.898313 0.0392063,-1.391892 -0.18623844,-0.355346 -0.0686139,-0.730476 0.14702931,-1.056245 0.35287087,-0.533033 0.95079257,-0.503428 1.16643577,0.09872 0.1568309,0.454095 0.3234633,0.631782 0.77435,0.375129 0.2842542,-0.148082 0.4999002,0 0.6665242,0.21717 0.1666523,0.227048 0.3626838,0.246775 0.5979443,0.157932 0.215646,-0.05924 0.4018844,-0.187565 0.5783015,-0.325741 0.3724769,-0.15796 0.5881229,-0.463973 0.7547469,-0.819348 0.3136618,-0.839074 0.2352604,-0.97725 -0.6077091,-0.967401 -0.3626838,-0.286258 0.3234549,-0.671237 -0.098016,-0.947646 -0.1176302,0 0.019586,0.01973 -0.088223,-0.01975 -0.3528624,-0.138176 -1.0095935,0.315891 -1.0390011,-0.345497 -0.029408,-0.542911 0.597916,-0.760081 1.0586156,-0.947645 0.333248,-0.138205 0.7351324,-0.04936 1.0879949,-0.177688 0.9508066,-0.207292 1.9015851,-0.04936 2.8523918,-0.06909 1.3820704,0.16781 2.8131624,0.138176 3.9501794,1.154938 0.04902,0.207293 0.264668,0.286287 0.362684,0.473823 0.0392,0.03948 0.05881,0.08884 0.0392,0.138205 -0.0098,0.03948 -0.02941,0.06912 -0.0392,0.06912 -0.245053,0.06909 -0.441085,-0.06912 -0.666552,-0.118477 -0.441085,-0.09869 -0.627324,0.04936 -0.588095,0.533061 0.04899,0.769987 -0.205853,1.52019 -0.372477,2.240816 -0.166652,0.710749 -0.842969,0.43434 -1.352691,0.207293 -0.1372164,-0.690993 0.303869,-1.263537 0.411706,-1.90517 0.06861,-0.394857 0.127423,-0.750231 -0.264668,-0.987157 -0.3920633,-0.227047 -0.7645402,-0.187536 -1.0487944,0.207321 -0.1960598,0.157931 -0.5587154,0.246775 -0.5587154,0.49355 -0.00982,1.24381 -1.1076375,1.885442 -1.5291082,2.892326 -0.8037689,0.15796 -1.0978162,0.740354 -1.1370451,1.470858 -0.029408,0.414584 0.00982,0.898285 0.3920913,1.145088 0.4901071,0.325741 0.7449538,-0.197442 1.0684087,-0.414612 0.2450535,-0.03948 0.1372164,-0.157932 0.049022,-0.256653 0.00979,-0.38498 0,-0.779837 0.3136618,-1.066123 0.6175022,0.483701 0.4116775,1.135211 0.2352322,1.688028 C 7.7933691,21.399471 7.4405067,21.883172 6.8229762,21.794328 6.1368376,21.705485 5.9113984,22.564315 5.2742818,22.514954 3.8039887,22.307662 2.5199227,21.715362 1.4711116,20.649268 Z"
     id="path59"
     inkscape:connector-curvature="0" />
  <path
     style="fill:#f0fafb;fill-opacity:1;fill-rule:evenodd;stroke:none"
     d="m 10.038024,17.687825 c 0.245053,-0.138204 0.490107,0.0099 0.744953,0.01976 0.34307,0 0.470493,-0.08884 0.480314,-0.43434 0.0098,-0.345525 0.0098,-0.691021 0.0098,-1.02664 0,-0.187565 0.05882,-0.315891 0.196032,-0.444218 0.23526,-0.236897 0.225439,-0.256652 0.02941,-0.54291 -0.205825,-0.296164 -0.205825,-0.296164 0.0392,-0.54294 0.09802,-0.09872 0.186239,-0.207292 0.274461,-0.315891 0.08822,-0.08884 0.196032,-0.108571 0.313662,-0.04936 0.274461,0.138205 0.548922,0.286287 0.833177,0.424491 0.05882,0.01973 0.09802,0.06909 0.09802,0.138176 0.0098,0.128326 -0.01961,0.266531 0.07843,0.37513 0.0392,0.02961 0.04899,0.07897 0.0392,0.128326 0.176417,0.394857 -0.07843,0.858802 0.15683,1.253659 0.0392,0.118477 0.0392,0.236926 -0.01961,0.345497 -0.196032,0.335647 0.02941,0.730504 -0.147038,1.076 0.01961,0.04936 0.01961,0.08884 -0.0098,0.128327 -0.176445,0.138204 -0.0098,0.384979 -0.166624,0.533061 0,0.227048 -0.0392,0.444218 -0.147038,0.65151 -0.362683,0.681115 -0.705753,1.362259 -1.274261,1.89532 -0.09802,0.06909 -0.196032,0.118449 -0.284254,0.197414 -0.862556,0.81932 -1.9211718,1.164844 -3.0778031,1.204327 -0.7057531,0.02961 -1.4115062,0.0099 -2.1172311,0 -0.2842542,-0.0099 -0.5685085,-0.02963 -0.813562,-0.187565 0.019586,-0.148082 0.078401,-0.286286 0.2450535,-0.306013 0.2548467,-0.02961 0.4312638,-0.128327 0.4508783,-0.414613 0.019614,-0.207292 0.1764453,-0.286258 0.3626837,-0.27638 0.166624,0.0098 0.333248,0.04936 0.4999003,0.07897 0.3038404,0.06909 0.3136617,0.06909 0.4999002,-0.256653 0.078401,-0.128327 0.1372164,-0.256653 0.3038404,-0.276409 0.1274516,-0.01973 0.2058529,-0.08884 0.1960598,-0.21717 0,-0.463945 0,-0.91804 -0.019614,-1.381985 -0.00979,-0.06912 -0.098016,-0.128355 -0.1568309,-0.197443 -0.019614,-0.02961 -0.029408,-0.05924 -0.049022,-0.07897 -0.048994,-0.15796 -0.048994,-0.325769 -0.1960316,-0.424462 -0.058815,-0.03951 -0.1078089,-0.07899 -0.1568309,-0.118477 -0.078401,-0.04936 -0.1568309,-0.108571 -0.2254391,-0.177687 -0.00979,-0.02961 -0.029408,-0.05921 -0.039201,-0.08884 -0.00982,-0.236897 -0.215646,-0.503428 0.1372165,-0.671237 0.068608,-0.02963 0.1470378,-0.108599 0.166624,-0.177687 0.07843,-0.345497 0.2940755,-0.552817 0.5783298,-0.710749 0.2254391,-0.118448 0.3136617,-0.315891 0.3136617,-0.562666 0,-0.167809 -0.00979,-0.345496 0.00979,-0.513334 0.029408,-0.236897 0.1372446,-0.43434 0.2744611,-0.621877 0.166624,-0.197442 0.4116775,-0.167837 0.6371449,-0.197442 0.4410851,0.296135 0.117602,0.661387 0.078401,0.987157 -0.049022,0.394857 -0.2058529,0.779836 0.2058529,1.075972 0.1470095,0.108599 0.2744329,0.236925 0.38227,0.384979 0.098016,0.09872 0.166624,0.21717 0.2646402,0.315891 z"
     id="path61"
     inkscape:connector-curvature="0" />
  <path
     style="fill:#6ebcdc;fill-opacity:1;fill-rule:evenodd;stroke:none"
     d="m 8.165846,2.3673836 c 0.1960598,0.2665279 0.431292,0.4935587 0.7155462,0.6712458 0.1372447,0.088844 0.2744611,0.1776872 0.3332762,0.3454965 0.1372165,0.4244904 0.4606996,0.7601091 0.5881229,1.2043269 0.048994,0.1974144 0.1470378,0.503428 0.00979,0.5429391 -0.7253393,0.2566529 0,0.4639451 0,0.6811151 0,0.078966 -0.029407,0.1579316 -0.068608,0.2270478 C 9.5675309,6.2172419 9.3714993,6.3652957 9.1264458,6.4245341 8.6363387,6.4146563 8.5579373,6.0494326 8.4991222,5.664425 8.381492,4.9537048 8.2834762,4.2232008 7.9502,3.6013241 c 0,0.049333 0.07843,0.1480538 0.039229,0.21717 -0.5391291,0.9180407 -0.088223,1.6978771 0.3234549,2.4875913 0.039201,0.069088 0,0.1678094 -0.019614,0.2566529 C 8.26389,6.6417041 8.214868,6.7009426 8.1560529,6.7503032 7.6953533,6.9378399 7.401306,6.7206699 7.18566,6.3356906 7.0288291,6.0395548 6.9503996,5.6940583 6.6661453,5.4768883 6.3818911,6.2271197 7.1954531,6.4245341 7.3621053,6.9279903 7.1072304,7.3129697 6.7151673,7.2537312 6.3328973,7.2438534 5.8525833,6.8095134 5.7839751,6.2172419 5.7447744,5.6052148 5.7349813,5.447255 5.7545676,5.2498406 5.5291284,5.2004799 5.4114982,5.1708748 5.3036893,5.2399628 5.2448742,5.3386841 c -0.098016,0.1579316 -0.1470378,0.3751016 0,0.4738229 C 5.7447744,6.1580034 5.7839751,6.7996639 6.1760664,7.2043706 6.1368376,7.480779 5.9310129,7.5005346 5.72516,7.5301397 5.4801064,7.5696226 5.34289,7.3721799 5.1468584,7.2833363 5.0390213,7.6683439 4.8723973,8.0237181 4.9900276,8.4185752 c -0.00982,0.039483 -0.00982,0.078966 -0.019615,0.1184487 -0.049022,0.069088 -0.1176302,0.1085709 -0.1960315,0.1283264 -0.068608,0 -0.1470378,-0.00988 -0.2254392,-0.039483 C 4.1862587,8.3593368 4.2450738,7.8855139 4.0294278,7.5400174 4.0196347,7.5103841 4.0000202,7.480779 3.9804058,7.4511739 3.9412051,7.3919354 3.9117976,7.3228474 3.8628038,7.2734868 3.7843742,7.1550099 3.6765653,7.0563168 3.6471578,6.898357 3.9412051,6.5726161 3.8235749,6.1580034 3.8922113,5.7829019 4.1274436,5.3189286 4.3528827,4.8648612 4.5881431,4.4008879 5.0292282,3.927065 5.4801064,3.4433643 5.9212198,2.9695414 6.1172513,2.7523686 6.3132829,2.5549401 6.6269447,2.5253265 7.1072304,3.3347934 7.3228764,2.3969972 7.6757671,2.3673836 l 0.4900789,0 z"
     id="path63"
     inkscape:connector-curvature="0" />
  <path
     style="fill:#60adcf;fill-opacity:1;fill-rule:evenodd;stroke:none"
     d="m 3.7255591,7.0069561 c 0.1470378,0.00988 0.2744611,0.029605 0.3430693,0.1776871 -0.039201,0.039483 -0.058815,0.069088 -0.039201,0.1085709 0.00979,0.039483 0.029408,0.059239 0.039201,0.059239 l 0,0 C 4.098036,7.8558806 3.6373364,8.2112548 3.6765653,8.7344383 3.9509982,8.497541 4.3234751,8.8726426 4.5881431,8.566629 c 0.058815,0 0.1078089,0 0.166624,0 0.058815,0.059238 0.1176302,0.059238 0.1764453,0 l 0,0 C 5.4605202,9.0404519 5.4311127,9.6722346 4.8429898,9.9288874 4.5097136,10.067092 4.1862587,10.254657 3.8529824,10.373105 c -0.1078088,0.03948 0.039229,0.177687 -0.029408,0.07897 0,-0.0099 0.019614,-0.02961 0.068636,-0.04936 0.1078089,-0.03948 0.2058247,-0.08884 0.3136618,-0.138204 0.2646398,-0.138176 0.5194865,-0.06909 0.6763173,0.15796 0.1862385,0.286258 -0.058815,0.473823 -0.2254391,0.661388 -0.166624,0.167809 -0.3626837,0.26653 -0.597916,0.315891 -0.1960315,0.01973 -0.3920913,0.0099 -0.5783297,0.03948 -0.9507813,-0.04936 -0.9507813,-0.04936 -0.7743444,0.839075 0.029405,0.187536 0.068614,0.384979 0.068614,0.582394 -0.1372277,0.473822 -0.6273264,0.4837 -0.9311894,0.740353 -0.058809,0.03948 -0.1274233,0.06912 -0.1960372,0.09872 -0.08822,0.03948 -0.1862384,0.07897 -0.2940586,0.1086 -0.068614,0.0098 -0.1372277,-0.0099 -0.1862384,-0.05924 C 1.020222,13.739254 0.87319273,13.719527 0.79477729,13.571445 0.92220062,13.156832 1.0496268,12.752126 1.2946775,12.396751 1.4024977,12.228942 1.5005191,12.051255 1.5005191,11.843935 l 0,-0.0099 c 0.1078202,-0.07899 0.068614,-0.246803 0.1764341,-0.335647 l 0,0 C 1.8141809,11.330629 1.8729932,11.123337 2.0494272,10.99501 2.3532902,10.708724 2.666952,10.422466 2.9610191,10.12633 3.0296273,10.057214 3.0296273,9.9190097 3.068828,9.8104388 3.1276431,9.6919901 3.11785,9.5439081 3.1962513,9.435309 l 0.00982,-0.3553742 c 0.00979,-0.65151 0.078401,-1.2931422 0.3234549,-1.9051694 0.068608,-0.049361 0.1078088,-0.148082 0.1960315,-0.1678093 z"
     id="path65"
     inkscape:connector-curvature="0" />
  <path
     style="fill:#67b5d6;fill-opacity:1;fill-rule:evenodd;stroke:none"
     d="M 3.7255591,7.0069561 C 3.666744,7.0661663 3.5981358,7.115527 3.5295276,7.1747654 3.5687282,6.6910648 3.666744,6.2172419 3.8922113,5.7829019 c 0.039201,0.1283264 0.058787,0.2665307 0.117602,0.4047067 0.1078371,0.296164 0.088223,0.5330613 -0.2450535,0.6613877 -0.029379,0.00988 -0.029379,0.1085991 -0.039201,0.1579598 z"
     id="path67"
     inkscape:connector-curvature="0" />
  <path
     style="fill:#d9f2f7;fill-opacity:1;fill-rule:evenodd;stroke:none"
     d="m 5.7937682,13.196343 c -0.1862384,0.266503 -0.4606713,0.197415 -0.6959318,0.197415 -0.3234548,0 -0.6175304,-0.0099 -0.7547468,0.37513 -0.049022,0.148053 -0.2352605,0.128326 -0.3724769,0.157931 -0.1568309,0.04936 -0.2450536,0.157932 -0.1862385,0.315892 0.039201,0.128326 0.1568309,0.148053 0.2744611,0.09869 0.2352323,-0.09869 0.4901071,-0.09869 0.7449538,-0.06909 0.098016,0.0099 0.1960316,0.08884 0.2940473,0.138204 -0.048994,0.06909 -0.1078088,0.128326 -0.1862384,0.157931 -1.1272238,0.43434 -1.1272238,0.43434 -1.1272238,1.618912 0.019615,0.513334 0.068608,1.016762 0.431292,1.411619 0.019614,0.03948 0.029408,0.07897 0.048994,0.108599 -0.088194,0.128326 -0.2352322,0.148054 -0.3724487,0.197414 -0.1960597,0.05924 -0.31369,0.02961 -0.3626837,-0.197414 -0.019615,-0.108599 -0.1078372,-0.197443 -0.1862385,-0.286286 -0.068608,-0.07897 -0.1568309,-0.16781 -0.2842542,-0.06909 -0.088223,0.06909 -0.1862385,0.138204 -0.2842599,0.177687 -0.6273264,0.256653 -0.6665355,0.227048 -0.7645541,-0.483701 -0.0098,-0.08884 -0.019603,-0.167809 -0.049011,-0.246803 -0.068614,-0.22702 -0.3528709,-0.345497 -0.5587125,-0.22702 -0.44108794,0.236898 -0.61752199,0.927891 -0.3136618,1.312898 0.1666325,0.197415 0.1862356,0.375102 0.1666325,0.621877 -0.029405,0.345524 -0.1372278,0.602177 -0.45088953,0.760109 -0.0784154,0.03948 -0.11762458,0.01975 -0.13722774,-0.05924 C 0.60853884,18.763826 0.49091427,18.329458 0.47131111,17.87539 0.4321048,16.986955 0.5301234,16.128153 0.80457887,15.289078 1.0398252,14.943581 1.26527,14.607934 1.5005191,14.262438 c -0.0098,-0.138204 0.039206,-0.266531 0.1176218,-0.375102 0.098021,-0.09872 0.2156431,-0.167809 0.3332677,-0.236925 0.058812,-0.03948 0.1176246,-0.07897 0.1764341,-0.108571 0.2548523,-0.118477 0.4900986,-0.385008 0.8037689,-0.148082 0.1568308,0.227048 0.38227,0.05924 0.5881228,0.108599 -0.1666522,-0.09872 -0.646938,0.167809 -0.3920913,-0.365252 0.8919916,-0.21717 1.7839549,-0.345496 2.6661251,0.05924 z"
     id="path69"
     inkscape:connector-curvature="0" />
  <path
     style="fill:#7b8986;fill-opacity:1;fill-rule:evenodd;stroke:none"
     d="m 0.8339836,19.573267 c 0.11762458,0.09872 0.15683089,0.227048 0.14702931,0.37513 C 0.8339836,19.859554 0.81438044,19.721349 0.8339836,19.573267 Z"
     id="path71"
     inkscape:connector-curvature="0" />
  <path
     style="fill:#7b8986;fill-opacity:1;fill-rule:evenodd;stroke:none"
     d="m 0.66735113,19.208015 c 0.0392063,0.02963 0.088217,0.04936 0.13722774,0.05924 -0.009802,0.04936 -0.009802,0.108599 -0.0294076,0.157931 -0.0294047,-0.06909 -0.0686139,-0.148053 -0.10782018,-0.21717 z"
     id="path73"
     inkscape:connector-curvature="0" />
  <path
     style="fill:#e6f7f9;fill-opacity:1;fill-rule:evenodd;stroke:none"
     d="m 13.3315,16.671063 c -0.11763,-0.08884 -0.176445,-0.207292 -0.176445,-0.355374 0,-0.296136 0.0098,-0.602149 0.01961,-0.898285 0.215646,0.394857 0.137216,0.829197 0.15683,1.253659 z"
     id="path75"
     inkscape:connector-curvature="0" />
  <path
     style="fill:#e6f7f9;fill-opacity:1;fill-rule:evenodd;stroke:none"
     d="m 13.164848,18.09256 c 0,-0.246803 -0.0098,-0.4837 -0.0098,-0.720626 0,-0.138204 0.04902,-0.266531 0.156831,-0.355374 -0.01959,0.365252 0.04902,0.740382 -0.147038,1.076 z"
     id="path77"
     inkscape:connector-curvature="0" />
  <path
     style="fill:#e6f7f9;fill-opacity:1;fill-rule:evenodd;stroke:none"
     d="m 12.988431,18.753948 c 0,-0.197443 -0.0392,-0.404735 0.166624,-0.533061 -0.0098,0.157931 -0.01959,0.315891 -0.02941,0.473823 -0.04899,0.01975 -0.08822,0.03948 -0.137217,0.05924 z"
     id="path79"
     inkscape:connector-curvature="0" />
  <path
     style="fill:#e6f7f9;fill-opacity:1;fill-rule:evenodd;stroke:none"
     d="m 13.135469,15.289078 c -0.137245,-0.08884 -0.156859,-0.227048 -0.147038,-0.365252 0.0784,-0.04936 0.127423,-0.03948 0.147038,0.04936 0,0.04936 0.0098,0.09872 0.0392,0.138205 -0.01961,0.05924 -0.02941,0.118448 -0.0392,0.177687 z"
     id="path81"
     inkscape:connector-curvature="0" />
  <path
     style="fill:#ef9b6e;fill-opacity:1;fill-rule:evenodd;stroke:none"
     d="m 7.832598,1.0149973 c 0.1960316,0.2369143 0.1960316,0.5034421 0.117602,0.7798421 -0.2254391,0.019744 -0.4508782,0.049358 -0.6763173,0.039486 -0.1960316,0 -0.3038687,-0.1381985 -0.3136618,-0.3356271 -0.00982,-0.2369143 0.029407,-0.4639564 0.2548467,-0.60215779 0.2450535,-0.15794285 0.431292,0 0.6175304,0.11845709 z"
     id="path83"
     inkscape:connector-curvature="0" />
  <path
     style="fill:#55a2c5;fill-opacity:1;fill-rule:evenodd;stroke:none"
     d="M 7.6757671,2.3673836 C 7.5091149,2.5944258 7.3326978,2.8115958 7.2738827,3.1077457 7.2444751,3.2360721 7.1170518,3.344643 6.9503996,3.3249157 6.7935687,3.2952823 6.7053742,3.1768337 6.6759667,3.0386294 6.6367378,2.8708201 6.6367378,2.6931386 6.6269447,2.5253265 6.754368,2.3180258 6.9798071,2.3673836 7.1562524,2.3081537 c 0.1764454,0.019744 0.3430694,0.039486 0.5195147,0.05923 z"
     id="path85"
     inkscape:connector-curvature="0" />
  <path
     style="fill:#78c3de;fill-opacity:1;fill-rule:evenodd;stroke:none"
     d="M 9.2048753,6.3258128 C 9.3028911,6.0987932 9.4793082,5.9704386 9.7243618,5.9704386 9.7145687,5.9211061 9.7145687,5.812507 9.6949542,5.812507 9.459722,5.7730241 9.2636904,5.6940583 9.2146684,5.4077721 9.195054,5.2992012 8.8715991,5.447255 8.9696149,5.2103577 9.0382231,5.0622757 9.2146684,5.1511192 9.3518849,5.1708748 9.6557536,5.230085 9.7733838,5.1017586 9.7047756,4.8155006 9.5871453,4.3416777 9.3911138,3.9171872 9.0480444,3.5519634 8.9206211,3.4038814 9.1264458,3.4137592 9.2146684,3.3841259 9.675368,3.7691334 9.8321989,4.3416777 10.077252,4.8648612 c 0.117602,0.2566529 0.117602,0.5527887 0.323455,0.7600809 0.0098,0.1184769 0.01961,0.2369256 0.02941,0.3553742 0.11763,0.1579598 0.0098,0.3751298 0.127423,0.5330614 0.04902,0.4540955 0.09802,0.9180406 0.147038,1.3721362 -0.7743613,0.2961358 -1.4115062,-0.1974427 -1.6173309,-1.233932 0,-0.1283265 0.029408,-0.2369256 0.1176302,-0.3257691 z"
     id="path87"
     inkscape:connector-curvature="0" />
  <path
     style="fill:#78c3de;fill-opacity:1;fill-rule:evenodd;stroke:none"
     d="m 12.988431,12.534956 c 0.01959,0.04936 0.02941,0.108571 0.0392,0.167809 0.02941,0.06909 0.06861,0.138204 0.09802,0.207292 0.0098,0.197443 0.0098,0.38498 0.0098,0.582422 0.0098,0.187565 -0.127452,0.21717 -0.274461,0.21717 -0.05881,-0.01975 -0.11763,-0.04936 -0.166652,-0.08884 -0.127424,-0.05924 -0.26464,-0.05924 -0.392064,-0.118449 -0.06861,-0.01976 -0.137244,-0.05924 -0.196031,-0.09872 -0.519515,-0.355375 -0.245054,-0.918041 -0.362684,-1.372137 -0.04902,-0.06909 0.0784,-0.128326 0.02941,-0.177687 -0.04902,-0.03948 -0.117631,0.06912 -0.196032,0.04936 -0.450906,-0.03948 -0.754775,0.05924 -0.774361,0.602149 -0.0098,0.197443 -0.127424,0.385008 -0.34307,0.463974 -0.07843,0.01973 -0.15683,0.01973 -0.23526,0.01973 -0.2352322,-0.04936 -0.4802858,-0.07897 -0.7253393,-0.06909 -0.1764454,0.0099 -0.3430694,0.0099 -0.5195147,0.0099 -0.3038404,-0.0099 -0.6273236,0.02961 -0.9115778,-0.138204 -0.078401,-0.05924 -0.1078089,-0.138205 -0.098016,-0.227048 0.4410852,-0.424462 1.1566314,-0.128327 1.5683089,-0.641632 0.1470378,-0.128327 0.2744611,-0.286287 0.3822983,-0.454096 0.2254394,-0.493578 0,-1.046367 0.1862384,-1.5498233 0.02938,-0.078966 0.08819,-0.138176 0.156831,-0.1875367 0.205825,0.00985 0.26464,0.1678093 0.30384,0.335619 0.01961,0.148082 0,0.306013 0.02941,0.454095 0,-0.138204 -0.02941,-0.296164 0.04902,-0.414612 0.38227,-0.4837011 0.4999,0.296135 0.803769,0.167809 0.509693,0.750231 1.02918,1.51034 1.538901,2.260572 z"
     id="path89"
     inkscape:connector-curvature="0" />
  <path
     style="fill:#93d1e6;fill-opacity:1;fill-rule:evenodd;stroke:none"
     d="m 11.44953,10.274384 c -0.02941,0.138204 -0.03923,0.325769 -0.245054,0.187565 -0.137244,-0.08884 -0.23526,-0.236926 -0.382298,-0.394857 -0.117602,0.197414 -0.04899,0.394857 -0.04899,0.572544 0.0098,0.138204 0.245054,0.355374 -0.04902,0.394857 -0.176417,0.02961 -0.225439,-0.21717 -0.274433,-0.37513 C 10.4105,10.491554 10.4105,10.313867 10.4105,10.146057 10.400707,9.9980037 10.361507,9.8597994 10.243876,9.7709559 10.361507,9.2872552 10.675168,9.5241526 10.930015,9.583391 l 0,0 c 0.0392,0.069088 0.107809,0.1184487 0.156831,0.1875649 0.11763,0.1678093 0.245054,0.3356191 0.362684,0.5034281 z"
     id="path91"
     inkscape:connector-curvature="0" />
  <path
     style="fill:#78c3de;fill-opacity:1;fill-rule:evenodd;stroke:none"
     d="m 10.930015,9.583391 c -0.137245,0.069088 -0.274461,0.1382042 -0.441085,0.069088 -0.09802,-0.049332 -0.19606,0.019756 -0.245054,0.1184769 l -0.0098,0 c -0.01961,0.019727 -0.03923,0.039483 -0.06864,0.039483 -0.4606714,0.039483 -0.4214708,-0.2566529 -0.323455,-0.5429391 0.254847,-0.7304758 0.519515,-0.9772509 0.88217,-0.8785578 0.04902,0.2862862 0.02941,0.6021775 0.215646,0.86868 0,0.1085991 0,0.21717 -0.0098,0.3257691 z"
     id="path93"
     inkscape:connector-curvature="0" />
  <path
     style="fill:#78c3de;fill-opacity:1;fill-rule:evenodd;stroke:none"
     d="M 11.086846,9.7709559 10.930015,9.583391 c 0.08822,0.029605 0.137217,0.098721 0.156831,0.1875649 z"
     id="path95"
     inkscape:connector-curvature="0" />
  <path
     style="fill:#56727c;fill-opacity:1;fill-rule:evenodd;stroke:none"
     d="m 12.811986,13.551689 c 0.0098,0.05924 0.02941,0.1086 0.04902,0.15796 -0.294076,0.08884 -0.294076,0.08884 -0.235261,0.424462 -0.02941,-0.0099 -0.05882,-0.01973 -0.0784,-0.02961 -1.137045,-0.562666 -2.362285,-0.740353 -3.6071387,-0.85883 -0.078401,0 -0.166624,-0.02961 -0.2450535,-0.04933 -0.2058247,-0.375129 0.068636,-0.385007 0.3136618,-0.414612 0.1764453,-0.01976 0.3528906,-0.04936 0.5293077,-0.06909 0.2058529,0.167809 0.4901067,-0.0099 0.6959597,0.148054 0.04899,0.02963 0.09802,0.03948 0.14701,0.03948 0.735161,-0.187536 1.333077,0.118477 1.911406,0.513334 l -0.0098,-0.0099 c 0.156831,0.138204 0.372477,0.01973 0.529308,0.148053 z"
     id="path97"
     inkscape:connector-curvature="0" />
  <path
     style="fill:#7c837c;fill-opacity:1;fill-rule:evenodd;stroke:none"
     d="m 13.135469,14.973186 c -0.04902,-0.01975 -0.09804,-0.03948 -0.147038,-0.04936 0.0098,-0.05921 0,-0.108571 -0.02941,-0.148054 0.0098,-0.05924 0.01959,-0.118477 0.02941,-0.167838 0.137217,0.07899 0.166624,0.207321 0.147038,0.365252 z"
     id="path99"
     inkscape:connector-curvature="0" />
  <path
     style="fill:#717e7d;fill-opacity:1;fill-rule:evenodd;stroke:none"
     d="m 13.125648,12.910057 c -0.06861,-0.04936 -0.107809,-0.108571 -0.09802,-0.207292 0.07843,0.04936 0.107837,0.118449 0.09802,0.207292 z"
     id="path101"
     inkscape:connector-curvature="0" />
  <path
     style="fill:#6ebcdc;fill-opacity:1;fill-rule:evenodd;stroke:none"
     d="m 10.724162,8.3889419 c -0.127423,-0.049361 -0.313662,-0.1184487 -0.30384,0.098721 0.0098,0.365252 -0.09804,0.6317827 -0.411706,0.8489527 -0.1862384,0.1283264 -0.098016,0.2763802 0.225467,0.43434 0,0.4837011 0,0.9674011 0,1.4511021 0,0.177687 -0.01961,0.345496 -0.196059,0.43434 C 9.7831769,11.014737 9.79297,10.254657 9.2636904,9.7215952 9.195054,9.5735132 9.1460602,9.4155817 9.1264458,9.2576219 9.1558533,8.8035546 9.2146684,8.3395812 8.9206211,7.9348746 8.7833764,7.5005346 8.3128838,7.3623303 8.0972378,6.9970783 8.0678302,6.8687519 8.0874447,6.7601528 8.1854604,6.6614597 l 0,0 C 8.4108996,6.4837726 8.812784,7.0365612 8.9696149,6.4837726 c 0.00979,-0.039483 0.1764453,0.088844 0.2450535,0.1776871 0.029408,0.039483 0.1078089,0.088844 0.1078089,0.1184486 -0.048994,0.3849794 0.029408,0.6120271 0.4901071,0.503428 0.1078372,-0.029605 0.1764454,0.1184769 0.2254396,0.2171983 0.08822,0.1579315 -0.1372169,0.3454964 0.03923,0.4639451 0.09802,0.059238 0.22544,-0.2862863 0.401857,-0.029605 0.0098,0.019727 0.147037,-0.029633 0.225467,-0.049361 l 0.01959,0.503428 z"
     id="path103"
     inkscape:connector-curvature="0" />
  <path
     style="fill:#717f7b;fill-opacity:1;fill-rule:evenodd;stroke:none"
     d="M 10.557538,6.5133777 C 10.400707,6.3652957 10.4105,6.177759 10.430115,5.9803163 c 0.186238,0.1382043 0.156831,0.3356469 0.127423,0.5330614 z"
     id="path105"
     inkscape:connector-curvature="0" />
  <path
     style="fill:#6b7777;fill-opacity:1;fill-rule:evenodd;stroke:none"
     d="m 2.0494272,10.99501 c -0.049008,0.21717 -0.1666324,0.394857 -0.372474,0.503428 0,-0.266531 0.107823,-0.444218 0.372474,-0.503428 z"
     id="path107"
     inkscape:connector-curvature="0" />
  <path
     style="fill:#6b7777;fill-opacity:1;fill-rule:evenodd;stroke:none"
     d="m 1.6769532,11.498438 c 0,0.148082 -0.029405,0.266531 -0.1764341,0.335647 0,-0.138204 0.029405,-0.266531 0.1764341,-0.335647 z"
     id="path109"
     inkscape:connector-curvature="0" />
  <path
     style="fill:#647877;fill-opacity:1;fill-rule:evenodd;stroke:none"
     d="M 3.1962513,9.435309 C 3.2158658,9.583391 3.1766651,9.7117174 3.068828,9.8104388 3.0492418,9.6623568 3.0590349,9.5241526 3.1962513,9.435309 Z"
     id="path111"
     inkscape:connector-curvature="0" />
  <path
     style="fill:#4d6260;fill-opacity:1;fill-rule:evenodd;stroke:none"
     d="m 1.6965563,13.966302 c -0.019603,0.128327 -0.068614,0.236926 -0.1960372,0.296136 -0.2058416,-0.06909 -0.4214848,-0.148054 -0.62732637,-0.21717 0.0980186,-0.09872 0.19604007,-0.197415 0.29405867,-0.296136 0.039206,-0.01975 0.078415,-0.03948 0.1176245,-0.03948 0.088217,-0.0099 0.1470293,-0.07897 0.2254448,-0.118448 0.039206,-0.01976 0.088217,-0.03951 0.1372277,-0.03951 0.2156432,-0.08884 0.3822757,-0.09869 0.3920772,0.207321 l -0.0098,0 c -0.1078202,0.06909 -0.2842571,0.03948 -0.3332678,0.207292 z"
     id="path113"
     inkscape:connector-curvature="0" />
  <path
     style="fill:#606961;fill-opacity:1;fill-rule:evenodd;stroke:none"
     d="M 7.4895287,20.63939 C 7.3424909,20.807199 7.2052744,20.994764 7.0386222,21.142818 6.5975371,21.517948 5.989828,21.350139 5.8035896,20.787444 5.5683291,20.066846 5.6761662,19.375853 5.989828,18.704587 c 0.098016,-0.21717 0.3038404,-0.335618 0.5096933,-0.43434 0.1862385,-0.07897 0.3234549,0.08884 0.4901071,0.108571 l 0.019586,0.0099 c 0.058815,0.128327 0.2548749,0.06912 0.2940755,0.21717 l -0.00982,-0.0099 c 0.3038687,0.118477 0.2842824,0.424491 0.3626838,0.671266 l 0,0 c 0.068608,0.414613 -0.088223,0.799592 -0.1274234,1.204327 0.029408,0.06909 0.00979,0.118448 -0.039201,0.167809 z"
     id="path115"
     inkscape:connector-curvature="0" />
  <path
     style="fill:#5f7877;fill-opacity:1;fill-rule:evenodd;stroke:none"
     d="m 2.0396256,13.75901 c -0.088217,-0.15796 -0.2352463,-0.187565 -0.3920772,-0.21717 0.3430694,-0.21717 0.6959403,-0.444218 1.0390068,-0.671266 0.049011,-0.07897 0.107823,-0.148082 0.1862412,-0.197414 0.6273236,-0.306042 1.3134623,-0.03951 1.9604003,-0.197443 0.2450535,0 0.4802857,-0.02961 0.7253393,-0.01975 0.8233551,0.09872 1.6663247,-0.197415 2.4603004,0.227047 0.333248,0.02963 0.6567312,0.05924 0.9899792,0.09872 -0.1274234,0.118448 -0.3234549,0.187565 -0.3136618,0.414612 -0.1960316,0 -0.3920631,0.01973 -0.5783016,0 -0.7743613,-0.07899 -1.5487226,-0.04936 -2.323084,0 -0.7743331,0.0099 -1.5486944,0.01973 -2.3132626,0.03948 -0.166624,0 -0.3430694,0.0099 -0.4802858,0.138205 -0.029408,0.06909 -0.068608,0.07897 -0.1274234,0.03948 -0.323469,-0.0099 -0.5195062,0.315864 -0.8331708,0.345497 z"
     id="path117"
     inkscape:connector-curvature="0" />
  <path
     style="fill:#6e7773;fill-opacity:1;fill-rule:evenodd;stroke:none"
     d="m 10.038024,17.687825 c -0.1372169,0 -0.2646402,-0.01973 -0.3430698,-0.148082 -0.1470095,-0.424462 0.049022,-0.819319 0.1274234,-1.224054 0.068636,-0.365224 0.3822984,-0.71072 0.1274515,-1.14506 -0.3332762,0.22702 -0.1960598,0.572516 -0.3332762,0.809442 -0.38227,0.256652 -0.00979,0.4837 0.029407,0.720626 0.048994,0.236897 -0.068608,0.384979 -0.264668,0.4837 -0.5194864,-0.118476 -0.5391008,-0.157959 -0.5391008,-0.552816 0,-0.463946 0.2058528,-0.878558 0.2940473,-1.312898 0.029407,-0.138204 0.07843,-0.266531 -0.029379,-0.394857 -0.049022,-0.394857 -0.019614,-0.483701 0.2254391,-0.493579 0.2058246,-0.01973 0.4116775,-0.02961 0.597916,0.0099 0.6371163,0.138204 0.9213713,0.572544 0.7449533,1.204327 -0.186238,0.690993 -0.421498,1.362258 -0.637144,2.043373 z"
     id="path119"
     inkscape:connector-curvature="0" />
  <path
     style="fill:#6a716e;fill-opacity:1;fill-rule:evenodd;stroke:none"
     d="m 3.5785213,16.315689 c -0.029379,-0.197414 -0.068608,-0.394857 -0.068608,-0.592271 0,-0.967402 0.215646,-1.204327 1.1664527,-1.312898 0.1372164,-0.01976 0.2842542,0 0.4214706,0 0.068608,0.03948 0.1470378,0.07897 0.2058529,0.138204 0.1960316,0.187537 0.1960316,0.315891 -0.00982,0.355374 -0.3430693,0.06909 -0.3626556,0.276381 -0.3234549,0.552789 0.2058529,0.197414 0.049022,0.592272 0.38227,0.730476 0.098016,0.04936 0.1862385,0.128326 0.2352605,0.227048 0,0.03948 0,0.07897 0.00979,0.118448 -0.058815,0.177687 -0.078401,0.37513 -0.1568309,0.542939 C 5.3036893,17.362085 5.0782502,17.470655 4.7743816,17.312724 4.26466,16.977077 4.1862587,16.483527 4.2548669,15.93071 4.2352807,15.743145 4.480306,15.535853 4.2156662,15.377921 c -0.1372164,0.07897 -0.1568309,0.21717 -0.2058529,0.345497 -0.1274233,0.21717 -0.029408,0.592271 -0.431292,0.592271 z"
     id="path121"
     inkscape:connector-curvature="0" />
  <path
     style="fill:#f5f6f5;fill-opacity:1;fill-rule:evenodd;stroke:none"
     d="m 4.4508984,15.841866 c -0.058787,0.523184 0.1274516,0.997007 0.3234832,1.470858 -0.098016,0.355374 -0.098016,0.355374 -0.5097216,0.394857 l -0.039201,-0.01976 C 3.7647598,17.065921 3.7451736,16.36505 3.8725969,15.644452 c 0.078401,-0.207321 0.019614,-0.493579 0.3234549,-0.552817 0.5587153,0.08884 0.2254391,0.483701 0.2548466,0.750231 z"
     id="path123"
     inkscape:connector-curvature="0" />
  <path
     style="fill:#f6f6f5;fill-opacity:1;fill-rule:evenodd;stroke:none"
     d="m 5.4506989,16.335445 c -0.6273236,-0.08884 -0.6273236,-0.08884 -0.5293078,-0.730476 0.00982,-0.04936 0.029408,-0.09872 0.049022,-0.148082 0.049022,-0.06909 0.1078371,-0.128326 0.1568309,-0.187565 0.1274233,-0.167809 0.2940756,-0.177687 0.4410851,-0.05921 0.2450536,0.197414 0.3626838,0.473823 0.38227,0.799564 0.00982,0.256681 -0.1568309,0.404735 -0.3528624,0.523183 l 0,-0.0098 c -0.019586,-0.08884 -0.098016,-0.128327 -0.1470378,-0.187565 z"
     id="path125"
     inkscape:connector-curvature="0" />
  <path
     style="fill:#f0fafb;fill-opacity:1;fill-rule:evenodd;stroke:none"
     d="m 7.4895287,20.63939 c -0.00982,-0.05924 0.00979,-0.118477 0.039201,-0.167809 0.058815,0.03948 0.068608,0.07897 0.029408,0.128326 -0.00979,0.01973 -0.039201,0.0296 -0.068608,0.03948 z"
     id="path127"
     inkscape:connector-curvature="0" />
  <path
     style="fill:#c5c8c4;fill-opacity:1;fill-rule:evenodd;stroke:none"
     d="m 9.3812924,17.184397 c 0.068608,-0.157959 0.1274234,-0.325769 0.1862385,-0.4837 0,-0.03948 0,-0.06912 0,-0.108599 0,-0.05924 0,-0.128327 0.00982,-0.197415 0.019586,-0.108599 0.058787,-0.197442 0.1372165,-0.276408 0.166624,-0.04936 0.2548466,0.03948 0.3136613,0.187565 C 9.9106002,16.720424 9.8027913,17.135037 9.6949542,17.539743 9.5871453,17.421295 9.4891296,17.302846 9.3812924,17.184397 Z"
     id="path129"
     inkscape:connector-curvature="0" />
  <path
     style="fill:#e6f7f9;fill-opacity:1;fill-rule:evenodd;stroke:none"
     d="m 7.6561527,19.267254 c -0.166624,-0.197415 -0.2842543,-0.414585 -0.3626838,-0.671266 0.5293078,0.07899 0.5783298,0.148082 0.3626838,0.671266 z"
     id="path131"
     inkscape:connector-curvature="0" />
  <path
     style="fill:#e6f7f9;fill-opacity:1;fill-rule:evenodd;stroke:none"
     d="m 7.3032902,18.605866 c -0.1372446,-0.01973 -0.2352604,-0.08884 -0.2940755,-0.21717 0.1372446,0.0099 0.264668,0.05924 0.2940755,0.21717 z"
     id="path133"
     inkscape:connector-curvature="0" />
  <path
     style="fill:#67b5d6;fill-opacity:1;fill-rule:evenodd;stroke:none"
     d="m 5.4703133,12.653404 c -0.2352322,0.01976 -0.4704926,0.02961 -0.7057531,0.04936 0.039229,-0.671266 -0.7253393,-0.769987 -0.9017564,-1.273415 0.00979,-0.03948 0.029408,-0.07897 0.039201,-0.108599 0.2940474,-0.128326 0.5685085,-0.27638 0.7743614,-0.523184 0.068608,-0.08884 0.1960315,-0.167809 0.098016,-0.286258 -0.088223,-0.108599 -0.215646,-0.177687 -0.3724769,-0.157959 -0.029408,0 -0.058815,0.0099 -0.07843,0.02963 -0.2352322,0.365224 -0.4999002,0.06909 -0.7939475,0.05921 C 3.6079289,10.205296 3.8333962,10.284262 3.9412051,10.18554 4.0392209,10.086847 4.1666442,10.017731 4.26466,9.9190097 4.3822902,9.8104388 4.5195349,9.800561 4.6567513,9.7709559 5.0782502,9.6722346 5.0880433,9.652479 5.0978364,9.2872552 c 0,-0.2566529 0.07843,-0.5330613 -0.166624,-0.7206262 C 4.8527829,8.4481803 4.7743816,8.3297317 4.695952,8.2112548 4.6273438,8.1125617 4.5979362,7.9940848 4.6763658,7.9052412 4.9018049,7.6584661 4.9312124,7.3524526 4.96062,7.046439 4.9704131,6.9279903 5.0782502,6.8489963 5.2056736,6.8687519 c 0.1274233,0.019755 0.2058246,0.088843 0.1764171,0.2270478 -0.039201,0.1875366 0.068608,0.2467751 0.2254391,0.2566529 0.1176302,0.4738228 0.088223,0.9772791 0.2254673,1.451102 0.019586,0.3158913 0.00979,0.6416322 0.019586,0.9674013 -0.00979,0.4738231 0.029408,0.9575231 -0.019586,1.4313461 -0.049022,0.5923 0.1470096,0.967402 0.7547469,1.066123 0.078401,0.05921 0.1078089,0.138204 0.098016,0.236897 -0.38227,0.236926 -0.8233551,0.01976 -1.2154465,0.148082 z"
     id="path135"
     inkscape:connector-curvature="0" />
  <path
     style="fill:#5daed2;fill-opacity:1;fill-rule:evenodd;stroke:none"
     d="M 9.2146684,6.6614597 C 9.1264458,6.6417041 9.0186369,6.5726161 8.9696149,6.6022212 8.5775518,6.8489963 8.5775518,6.8489963 8.26389,6.7009426 8.2344824,6.681187 8.214868,6.6713092 8.1854604,6.6614597 8.2050749,6.3652957 8.1266453,6.0790377 7.9109993,5.8717454 7.6953533,5.664425 7.5385224,5.4670106 7.616952,5.1313919 7.6365382,5.0425483 7.5385224,4.9240714 7.4797073,4.8352279 7.234682,4.4700041 7.2248607,4.4601263 7.6855602,4.3120443 7.8227767,4.2626837 7.8227767,4.1639906 7.8423911,4.0455137 7.8717987,3.8086163 7.7541684,3.6013241 7.7051747,3.3841259 c -0.029408,-0.1085709 0,-0.2270196 0.019586,-0.3356187 0,-0.019727 0.029408,-0.029605 0.058815,-0.039483 0.019614,0 0.058815,0 0.07843,0.019756 0.039201,0.039483 0.078401,0.078966 0.098016,0.1283264 0.039201,0.078966 0.039201,0.1776871 0.078401,0.2467751 0.4901071,0.7403536 0.5881229,1.5794285 0.6665524,2.4382307 0.029408,0.3060136 0.2058247,0.4540956 0.4999002,0.4837007 l 0.00979,0.3356469 z"
     id="path137"
     inkscape:connector-curvature="0" />
  <path
     style="fill:#78c3e3;fill-opacity:1;fill-rule:evenodd;stroke:none"
     d="M 6.1368376,7.194521 C 5.8721978,7.1747654 5.6173511,7.1648877 5.6173511,6.7897861 c 0,-0.3751298 -0.1274233,-0.6712655 -0.5489222,-0.7502313 -0.098016,-0.019756 -0.1274233,-0.098721 -0.1372165,-0.1875649 0,-0.2270478 0,-0.4540673 0.029408,-0.6811151 0,-0.059239 0.1078089,-0.1678094 0.1568309,-0.1678094 0.1960315,0.029605 0.3136618,-0.088843 0.4606995,-0.1678375 0.1764172,-0.098693 0.333248,0.00988 0.3626556,0.2073204 0.00979,0.029605 0.00979,0.05921 0.00979,0.088844 -0.078401,0.7008707 0.1372447,1.3523807 0.3430693,2.0038907 -0.029407,0.078966 -0.078401,0.098721 -0.1568308,0.059238 z"
     id="path139"
     inkscape:connector-curvature="0" />
  <path
     style="fill:#4c605f;fill-opacity:1;fill-rule:evenodd;stroke:none"
     d="m 6.1368376,7.194521 c 0.068636,0.00985 0.1176302,-0.00988 0.1568308,-0.059238 0.3626838,-0.088844 0.7155463,-0.1776872 1.0684369,-0.2665307 0.039201,-0.069088 0.088195,-0.098721 0.1568309,-0.078966 0.098016,0.029605 0.1960316,0.049361 0.2940474,0.049361 0.1470377,0.00985 0.264668,0.05921 0.3724768,0.1579315 0.166624,0.098721 0.3332763,0.1974427 0.4999003,0.3060136 0.1764453,0.1283264 0.3626837,0.2665307 0.3724769,0.5231835 0.088223,0.1579316 0,0.21717 -0.1372165,0.2566529 C 8.8029909,8.063201 8.6853607,8.0138403 8.5873449,7.9447241 8.0874447,7.480779 7.4797073,7.549867 6.8719982,7.6189832 6.5975371,7.5893781 6.3328973,7.5893781 6.1466589,7.8361532 6.0094142,8.0335677 5.9996211,8.2606154 5.9505991,8.4777854 5.8819909,8.6258674 5.8329971,8.783799 5.6173511,8.7344383 5.558536,8.4876632 5.509514,8.2310103 5.4409058,7.984207 5.3722976,7.7374319 5.4605202,7.5400174 5.6075298,7.3524526 c 0.1862384,-0.019756 0.3920913,0 0.5293078,-0.1579316 z"
     id="path141"
     inkscape:connector-curvature="0" />
  <path
     style="fill:#79c2df;fill-opacity:1;fill-rule:evenodd;stroke:none"
     d="m 8.1854604,6.9970783 c -0.1862384,0.039483 -0.3724768,0 -0.5489222,-0.059238 -0.058787,-0.029605 -0.1274233,-0.05921 -0.1960315,-0.078966 l -0.039201,0.019756 -0.039201,-0.00988 C 7.2836758,6.8391468 7.1758669,6.8391468 7.1268449,6.7897861 6.970014,6.5824657 6.6465591,6.681187 6.5485433,6.5133777 6.4407062,6.3356906 6.4799069,6.0691599 6.4504993,5.8519899 6.4112987,5.6249421 6.2544678,5.4275277 6.323076,5.1807243 c 0.019614,-0.049332 0.049022,-0.1085709 0.088223,-0.138176 0.068608,-0.049361 0.1666522,-0.029633 0.2254391,0.029605 0.2058529,0.1974145 0.3136618,0.4738229 0.5685366,0.6317827 0.048994,0.029605 0.039201,0.1480538 0.058815,0.2270196 0.1274233,0.582422 0.2646397,0.6910211 0.9213708,0.730504 0,0.1184486 0,0.2270477 0,0.3356186 z"
     id="path143"
     inkscape:connector-curvature="0" />
  <path
     style="fill:#67b5d6;fill-opacity:1;fill-rule:evenodd;stroke:none"
     d="m 4.5881431,8.566629 c -0.098016,0.1678093 -0.1862384,0.3454964 -0.2940755,0.5133058 -0.019586,0.029633 -0.088195,0.029633 -0.1372165,0.039511 -0.00979,-0.049361 -0.039201,-0.098721 -0.029407,-0.148082 0.019614,-0.1283265 0,-0.2270478 -0.1568309,-0.21717 -0.166624,0.00988 -0.1372165,0.1184487 -0.1176303,0.2467751 0,0.039483 -0.039201,0.088844 -0.068608,0.1283264 -0.00979,0.00988 -0.058815,0 -0.068608,-0.019727 C 3.549142,8.9220032 3.3530822,8.7048332 3.4707124,8.4383026 3.6275433,8.063201 3.715766,7.628861 4.0686284,7.3524526 c 0.215646,0.1678093 0.3136618,0.3948571 0.3332763,0.65151 0.019586,0.2072922 0.1078089,0.3849793 0.1862384,0.5626664 z"
     id="path145"
     inkscape:connector-curvature="0" />
  <path
     style="fill:#5daed2;fill-opacity:1;fill-rule:evenodd;stroke:none"
     d="m 6.5093144,4.1837179 c -0.039201,-0.019727 -0.117602,-0.029605 -0.1274233,-0.05921 -0.019586,-0.039511 0.029408,-0.098721 0.049022,-0.148082 0.048994,0.019727 0.1274233,0.029605 0.1372165,0.069088 0.00982,0.029633 -0.029408,0.088844 -0.058815,0.1382042 z"
     id="path147"
     inkscape:connector-curvature="0" />
  <path
     style="fill:#67b5d6;fill-opacity:1;fill-rule:evenodd;stroke:none"
     d="m 4.9312124,8.566629 c -0.058815,0.1184769 -0.1176302,0.1085991 -0.1764453,0 l 0.1764453,0 z"
     id="path149"
     inkscape:connector-curvature="0" />
  <path
     style="fill:#67b5d6;fill-opacity:1;fill-rule:evenodd;stroke:none"
     d="m 4.0686284,7.3524526 c -0.1176302,-0.059239 -0.1176302,-0.1085992 0,-0.1678094 l 0,0.1678094 z"
     id="path151"
     inkscape:connector-curvature="0" />
  <path
     style="fill:#72bddc;fill-opacity:1;fill-rule:evenodd;stroke:none"
     d="m 2.8727964,12.821214 c -0.058815,0.01975 -0.1176274,0.03948 -0.1862412,0.04936 -0.049008,-0.06909 -0.1372278,-0.138204 -0.1372278,-0.207292 0.0098,-0.355374 -0.1176217,-0.671265 -0.264651,-0.977279 -0.1176246,-0.276408 -0.019606,-0.345496 0.284257,-0.463945 0.3626782,-0.138204 0.6567255,0.06909 0.9900017,0.09869 0.029408,0.02963 0.058815,0.04936 0.088223,0.07899 0.4410851,0.809442 0.4410851,0.809442 -0.3920914,1.026612 -0.029408,0.06912 -0.166624,-0.157932 -0.1568308,0.06912 -0.048994,0.128326 -0.1372165,0.227019 -0.2254392,0.325741 z"
     id="path153"
     inkscape:connector-curvature="0" />
  <path
     style="fill:#67b5d6;fill-opacity:1;fill-rule:evenodd;stroke:none"
     d="m 3.5589351,11.320751 c 0.1078089,-0.177687 0.2254391,-0.167809 0.3430693,0 l 0,0 c -0.1078371,0.108599 -0.2254391,0.09872 -0.3430693,0.0099 l 0,-0.0099 z"
     id="path155"
     inkscape:connector-curvature="0" />
  <path
     style="fill:#5f7877;fill-opacity:1;fill-rule:evenodd;stroke:none"
     d="m 1.5103207,13.591201 c -0.049011,0.07897 -0.1274262,0.128326 -0.2254448,0.128326 0.078415,-0.04936 0.1470293,-0.08884 0.2254448,-0.128326 z"
     id="path157"
     inkscape:connector-curvature="0" />
  <path
     style="fill:#74817e;fill-opacity:1;fill-rule:evenodd;stroke:none"
     d="m 3.8725969,15.644452 c 0.00979,0.473823 0.098016,0.937768 0.2548467,1.391863 0.068608,0.21717 0.1078371,0.424463 0.098016,0.65151 -0.2254391,0.02961 -0.431292,-0.04936 -0.4508782,-0.276408 -0.039201,-0.375102 -0.2548467,-0.71072 -0.1960598,-1.095728 0.1176303,-0.07897 0.1470378,-0.197414 0.1470378,-0.335618 0,-0.128327 0.039201,-0.256653 0.1470378,-0.335619 z"
     id="path159"
     inkscape:connector-curvature="0" />
  <path
     style="fill:#e6f7f9;fill-opacity:1;fill-rule:evenodd;stroke:none"
     d="m 2.8727964,13.413513 c 0.039201,-0.03948 0.078401,-0.05924 0.1274234,-0.03948 0.2940473,0.0098 0.597916,0.02961 0.9017846,0.04933 0,0.01976 0,0.04936 0.00979,0.06912 -0.2646398,0.05921 -0.5293078,0.128327 -0.7939476,0.187565 -0.019614,0 -0.058815,0.0099 -0.07843,0 -0.1274233,-0.04936 -0.1470095,-0.15796 -0.166624,-0.266531 z"
     id="path161"
     inkscape:connector-curvature="0" />
  <path
     style="fill:#5f7877;fill-opacity:1;fill-rule:evenodd;stroke:none"
     d="m 1.6965563,13.966302 c 0.039209,-0.187565 0.1666353,-0.227048 0.3332678,-0.207292 -0.058812,0.148054 -0.2058416,0.167809 -0.3332678,0.207292 z"
     id="path163"
     inkscape:connector-curvature="0" />
  <path
     style="fill:#6ebcdc;fill-opacity:1;fill-rule:evenodd;stroke:none"
     d="m 9.8517851,6.1580034 c -0.019586,0.00988 -0.039201,0.029605 -0.058815,0.039483 -0.019586,-0.049361 -0.048994,-0.098693 -0.058787,-0.1480537 -0.029407,-0.088844 -0.00982,-0.1085992 0.058787,-0.029633 0.029408,0.029633 0.039229,0.088844 0.058815,0.1382042 z"
     id="path165"
     inkscape:connector-curvature="0" />
  <path
     style="fill:#6cb9d7;fill-opacity:1;fill-rule:evenodd;stroke:none"
     d="m 12.292499,13.413513 c -0.08822,-0.0099 -0.186238,0.0099 -0.254875,-0.01975 -0.480285,-0.236926 -0.980186,-0.375102 -1.519286,-0.404735 -0.04902,0 -0.08822,-0.05921 -0.137245,-0.08884 0.23526,-0.26653 0.352891,-0.552788 0.284254,-0.92789 -0.06861,-0.325769 -0.0392,-0.335647 0.323483,-0.246803 0.04899,0.01975 0.137217,0.05924 0.14701,0.03948 0.264668,-0.345497 0.441113,0.01975 0.646938,0.07897 0.08822,0.157959 0.284254,0.236925 0.205853,0.503456 -0.117631,0.394857 -0.05881,0.779836 0.303868,1.066122 z"
     id="path167"
     inkscape:connector-curvature="0" />
  <path
     style="fill:#616058;fill-opacity:1;fill-rule:evenodd;stroke:none"
     d="m 9.7243618,11.992017 c -0.2842542,0.384979 -0.6763174,0.542939 -1.14681,0.533061 -0.1862385,0 -0.3822982,0.01973 -0.5783298,0.02961 -0.3038687,0.108599 -0.6175304,0.03948 -0.9213709,0.04936 C 6.9406064,12.574439 6.8327976,12.505322 6.7445749,12.396751 6.5975371,12.209187 6.3818911,12.288152 6.205474,12.268425 6.0192356,12.238792 5.8721978,12.199309 5.9800067,11.962411 c 0.2352604,-0.187564 0.5097215,-0.177687 0.7939757,-0.177687 1.0193867,0.197415 2.0191872,0.197415 2.9699938,-0.315891 0.1176302,0.187565 0.088223,0.355374 -0.019614,0.523184 z"
     id="path169"
     inkscape:connector-curvature="0" />
  <path
     style="fill:#606864;fill-opacity:1;fill-rule:evenodd;stroke:none"
     d="m 9.7243618,11.992017 c -0.00979,-0.177688 -0.019586,-0.365252 -0.029408,-0.54294 -0.215646,-0.54291 -0.4704926,-1.066094 -0.76454,-1.5695502 -0.019614,-0.078966 -0.029407,-0.1579316 -0.029407,-0.2467751 0.019614,-0.078966 0.048994,-0.148082 0.098016,-0.21717 0.2058529,-0.1184487 0.2744612,0.069088 0.3920914,0.1678093 0.00979,0.029605 0.00979,0.059238 0.029408,0.078966 0.5783016,0.5528172 0.7547467,1.2240542 0.6175027,1.9940412 -0.098016,0.118449 -0.2058251,0.227048 -0.3136622,0.335619 z"
     id="path171"
     inkscape:connector-curvature="0" />
  <path
     style="fill:#9ec8d4;fill-opacity:1;fill-rule:evenodd;stroke:none"
     d="m 6.9798071,12.525078 c 0.3430693,0.0099 0.6861387,0.01973 1.0194149,0.02961 0.00979,0.04936 0.00979,0.08884 0.019614,0.128326 -0.8527908,-0.04936 -1.7055535,0.08884 -2.5485231,-0.02961 0.1078371,-0.108599 0.2450536,-0.128326 0.3920914,-0.128326 0.2548466,0 0.5096933,0 0.76454,-0.0099 0.1176302,-0.08884 0.2450535,-0.07897 0.3528624,0.0099 z"
     id="path173"
     inkscape:connector-curvature="0" />
  <path
     style="fill:#6cb9d7;fill-opacity:1;fill-rule:evenodd;stroke:none"
     d="m 10.234083,12.860697 c -0.2450532,0.0099 -0.4901068,0.03948 -0.6959597,-0.148054 0.2450536,0.0098 0.4999007,-0.08884 0.6959597,0.148054 z"
     id="path175"
     inkscape:connector-curvature="0" />
  <path
     style="fill:#6cb9d7;fill-opacity:1;fill-rule:evenodd;stroke:none"
     d="m 12.811986,13.551689 c -0.196032,0 -0.392063,0.03951 -0.529308,-0.148053 0.196032,-0.0099 0.392091,-0.04936 0.529308,0.148053 z"
     id="path177"
     inkscape:connector-curvature="0" />
  <path
     style="fill:#6cb9d7;fill-opacity:1;fill-rule:evenodd;stroke:none"
     d="m 11.782778,11.843935 0.0392,-0.07897 0.02941,0.03948 -0.06861,0.03948 z"
     id="path179"
     inkscape:connector-curvature="0" />
  <path
     style="fill:#5c675f;fill-opacity:1;fill-rule:evenodd;stroke:none"
     d="m 9.0578376,9.3958261 c -0.00979,0.069116 -0.00979,0.1382042 -0.019614,0.2073205 -0.3234549,0.029605 -0.2940473,-0.2270478 -0.3528624,-0.4146127 0,-0.1283265 0.00979,-0.2467751 0.039201,-0.3553742 0.049022,-0.1776871 0.098016,-0.3553743 0.068608,-0.5330614 0,-0.078966 0.00982,-0.1480537 0.029407,-0.21717 0.039229,-0.00988 0.068637,-0.019727 0.098044,-0.029605 0.048994,-0.078966 0.098016,-0.148082 0.1372165,-0.2270478 0.3920631,0.43434 0.3920631,0.9180407 0.1568308,1.4313465 -0.029408,0.069116 -0.088223,0.1184769 -0.1568308,0.1382042 z"
     id="path181"
     inkscape:connector-curvature="0" />
  <path
     style="fill:#78c3de;fill-opacity:1;fill-rule:evenodd;stroke:none"
     d="M 9.79297,8.8825203 C 9.7047756,8.8529152 9.6557536,8.7936768 9.6851611,8.7048332 c 0.029408,-0.1085709 0.07843,-0.21717 0.1960316,-0.2270478 0.1078371,-0.019727 0.1470373,0.059238 0.1568313,0.148082 0.0098,0.1776872 -0.088195,0.2665307 -0.245054,0.2566529 z"
     id="path183"
     inkscape:connector-curvature="0" />
  <path
     style="fill:#78c3de;fill-opacity:1;fill-rule:evenodd;stroke:none"
     d="M 9.0578376,9.3958261 C 9.1068596,9.3464654 9.1656464,9.297133 9.2146684,9.2576219 9.3518849,9.3267381 9.3812924,9.4451868 9.3911138,9.583391 9.2734836,9.5241526 9.1656464,9.4649423 9.0578376,9.3958261 Z"
     id="path185"
     inkscape:connector-curvature="0" />
  <path
     style="fill:#e3a69d;fill-opacity:1;fill-rule:evenodd;stroke:none"
     d="m 6.8131831,19.622628 c 0.264668,0.306014 0.1862385,0.641632 0.1078371,0.977279 -0.039229,0.148054 -0.1568309,0.236898 -0.2842824,0.306014 -0.166624,0.09869 -0.3234549,0.03948 -0.4214707,-0.128327 -0.1470378,-0.246803 0.029408,-0.444217 0.068608,-0.661387 0,-0.355375 0.1764454,-0.523184 0.5293078,-0.493579 z"
     id="path187"
     inkscape:connector-curvature="0" />
  <path
     style="fill:#5a4c40;fill-opacity:1;fill-rule:evenodd;stroke:none"
     d="m 6.8131831,19.622628 c -0.2450535,0.09872 -0.3724769,0.306014 -0.5293078,0.493579 -0.2548466,-0.118477 -0.3234549,-0.21717 -0.215646,-0.32577 0.1470378,-0.138204 0.2940756,-0.26653 0.4410851,-0.394857 0.1470378,-0.118448 0.1764454,-0.08884 0.3038687,0.227048 z"
     id="path189"
     inkscape:connector-curvature="0" />
  <path
     style="fill:#85cbe5;fill-opacity:1;fill-rule:evenodd;stroke:none"
     d="m 3.5589351,11.330629 0.3430693,-0.0099 c 0.068608,0.167838 0.1862385,0.266531 0.3430694,0.345496 0.1960315,0.1086 0.3920631,0.207321 0.5685084,0.335647 0.2058529,0.138205 0.215646,0.296136 0.019615,0.463945 -0.058815,0.04936 -0.049022,0.15796 -0.068637,0.236926 -0.4116775,0.01973 -0.8233551,0.108571 -1.2350326,0.02961 -0.2352605,-0.03948 -0.4410852,0.05924 -0.6567312,0.08884 0.058815,-0.148054 0.1176303,-0.306014 0.166624,-0.463945 0.1568309,-0.05924 0.3136618,-0.118477 0.4704927,-0.16781 0.1176302,-0.02963 0.2940756,0.0099 0.3038687,-0.177687 0,-0.05924 -0.1960316,-0.108599 -0.215646,-0.187565 -0.048994,-0.15796 -0.029408,-0.325769 -0.039201,-0.493578 z"
     id="path191"
     inkscape:connector-curvature="0" />
  <path
     style="fill:#e5e4e2;fill-opacity:1;fill-rule:evenodd;stroke:none"
     d="m 10.02823,16.30584 c -0.088222,-0.04936 -0.1764449,-0.108599 -0.2744607,-0.15796 -0.1078089,-0.0099 -0.166624,-0.06909 -0.1764171,-0.187537 -0.1862384,-0.335647 0,-0.661388 0.029408,-0.987157 0,-0.04936 0.058787,-0.108571 0.098016,-0.118448 0.2450535,-0.108599 0.7057244,0.227047 0.6371164,0.4837 -0.0784,0.325741 -0.205853,0.65151 -0.313662,0.967402 z"
     id="path193"
     inkscape:connector-curvature="0" />
  <path
     style="fill:#5e645b;fill-opacity:1;fill-rule:evenodd;stroke:none"
     d="m 9.5773522,15.960343 0.1862385,0.187537 c -0.029408,0.118477 -0.049022,0.236925 -0.068637,0.345496 -0.039201,0.06912 -0.088194,0.128327 -0.1274233,0.197443 l 0,0.0099 C 9.5087158,16.641458 9.4499007,16.58222 9.3911138,16.513132 9.0676307,16.128153 9.0676307,16.128153 9.5773522,15.960343 Z"
     id="path195"
     inkscape:connector-curvature="0" />
  <path
     style="fill:#c0d7de;fill-opacity:1;fill-rule:evenodd;stroke:none"
     d="m 4.4508984,15.841866 c -0.088194,-0.246775 0.058815,-0.572544 -0.2548466,-0.750231 0.3038686,-0.157932 0.3626838,-0.138204 0.3528906,0.108599 0,0.21717 0.019586,0.444218 -0.098044,0.641632 z"
     id="path197"
     inkscape:connector-curvature="0" />
  <path
     style="fill:#e6f7f9;fill-opacity:1;fill-rule:evenodd;stroke:none"
     d="m 5.4506989,16.335445 c 0.088223,0.02961 0.1372447,0.09872 0.1470378,0.187565 -0.048994,-0.05924 -0.098016,-0.128327 -0.1470378,-0.187565 z"
     id="path199"
     inkscape:connector-curvature="0" />
  <path
     style="fill:#6e7773;fill-opacity:1;fill-rule:evenodd;stroke:none"
     d="m 9.5675309,16.690819 c 0.039229,-0.06912 0.088223,-0.128326 0.1274233,-0.197443 0,0.09872 -0.029407,0.167838 -0.1274233,0.197443 z"
     id="path201"
     inkscape:connector-curvature="0" />
  <path
     style="fill:#5b5d59;fill-opacity:1;fill-rule:evenodd;stroke:none"
     d="m 5.9800067,11.952534 c 0.049022,0.157931 0.1568309,0.21717 0.3038686,0.227047 0.1862385,0.0099 0.3920914,-0.01975 0.5293078,0.16781 -0.048994,0.07897 -0.1176302,0.08884 -0.1960315,0.02961 -1.0096218,-0.06909 -1.0096218,-0.06909 -1.0194149,-1.095728 0,-0.503428 -0.068608,-1.006884 0.039201,-1.5103121 0.6665525,0.3454961 0.2058529,1.0364891 0.4606996,1.5004341 0.039201,0.246804 0.068608,0.483701 -0.1176302,0.681144 z"
     id="path203"
     inkscape:connector-curvature="0" />
  <path
     style="fill:#6f6c61;fill-opacity:1;fill-rule:evenodd;stroke:none"
     d="M 5.940806,11.320751 C 5.7055738,11.103581 5.8133827,10.817323 5.7839751,10.550792 5.7545676,10.284262 5.8721978,9.9980037 5.6369373,9.7709559 5.6271442,9.4254594 5.6271442,9.0799348 5.6173511,8.7344383 5.7545676,8.6455948 5.774182,8.5074188 5.8035896,8.3692146 c 0.4214706,0.1085708 0.3626555,0.4639451 0.38227,0.7600808 0.029408,0.43434 0,0.8687083 0.019614,1.2931706 0,0.325741 0.00979,0.65151 -0.264668,0.898285 z"
     id="path205"
     inkscape:connector-curvature="0" />
  <path
     style="fill:#5f7877;fill-opacity:1;fill-rule:evenodd;stroke:none"
     d="m 6.6171516,12.376996 c 0.068608,-0.0099 0.1274233,-0.01973 0.1960315,-0.02961 0.058815,0.05924 0.1176302,0.118448 0.166624,0.177687 -0.117602,0 -0.2352322,0 -0.3528624,-0.0099 0.00979,-0.04936 0.00979,-0.09872 -0.00979,-0.138204 z"
     id="path207"
     inkscape:connector-curvature="0" />
  <path
     style="fill:#dc8353;fill-opacity:1;fill-rule:evenodd;stroke:none"
     d="M 5.9702136,10.461949 C 5.9604204,9.948643 5.9505991,9.4451868 5.940806,8.931881 c 0,-0.1974427 0.00979,-0.4047349 -0.1372164,-0.5626664 -0.00982,-0.2369256 0.019586,-0.4639734 0.166624,-0.65151 C 6.10743,7.5696226 6.3034898,7.6091054 6.4603207,7.549867 6.6367378,7.5301397 6.7935687,7.5992277 6.9602209,7.6387106 6.80339,8.1224112 6.4701138,8.5469017 6.5583364,9.0996903 6.323076,9.4057039 6.3623049,9.7808337 6.3034898,10.13618 6.2544678,10.304017 6.205474,10.481704 5.9702136,10.461949 Z"
     id="path209"
     inkscape:connector-curvature="0" />
  <path
     style="fill:#ccaf94;fill-opacity:1;fill-rule:evenodd;stroke:none"
     d="M 7.019036,7.7374319 C 6.8425907,7.7078268 6.6661453,7.6781934 6.4897282,7.6485883 6.4701138,7.3820577 6.6465591,7.4511739 6.7935687,7.480779 7.1758669,7.3425748 7.5581369,7.2932141 7.9502,7.3820577 8.2540687,7.4511739 8.5285298,7.5795003 8.7049751,7.8657583 8.6951538,7.8953917 8.6853607,7.9348746 8.6657462,7.9743574 8.6167524,8.0434454 8.5481442,8.0829283 8.4697147,8.1026839 8.0188364,7.8855139 7.5287293,7.7473097 7.019036,7.7374319 Z"
     id="path211"
     inkscape:connector-curvature="0" />
  <path
     style="fill:#5e4f38;fill-opacity:1;fill-rule:evenodd;stroke:none"
     d="M 6.7935687,7.480779 C 6.6955529,7.5400174 6.587744,7.5992277 6.4897282,7.6584661 6.3132829,7.6781934 6.1466589,7.697949 5.9702136,7.7177046 6.1956527,7.4610234 6.42112,7.2241261 6.7935687,7.480779 Z"
     id="path213"
     inkscape:connector-curvature="0" />
  <path
     style="fill:#ccaf94;fill-opacity:1;fill-rule:evenodd;stroke:none"
     d="m 8.7049751,7.8657583 c 0.078401,0.059238 0.1470096,0.1184487 0.215646,0.1875649 l -0.07843,-0.019755 c -0.1274234,0.049361 -0.1862385,0.00988 -0.1568309,-0.138176 l 0.019614,-0.029633 z"
     id="path215"
     inkscape:connector-curvature="0" />
  <path
     style="fill:#6ebcdc;fill-opacity:1;fill-rule:evenodd;stroke:none"
     d="m 7.4405067,6.8588741 0.1960315,0.078966 c -0.078401,0.029633 -0.1372164,-0.00985 -0.1960315,-0.078966 z"
     id="path217"
     inkscape:connector-curvature="0" />
  <path
     style="fill:#85cbe5;fill-opacity:1;fill-rule:evenodd;stroke:none"
     d="m 3.0394204,12.357269 c -0.019586,-0.0099 -0.068608,-0.02963 -0.058815,-0.03948 0.00982,-0.05924 0.039229,-0.03948 0.058815,0.03948 z"
     id="path219"
     inkscape:connector-curvature="0" />
  <path
     style="fill:#e9b086;fill-opacity:1;fill-rule:evenodd;stroke:none"
     d="m 8.6853607,7.8953917 c 0.049022,0.049332 0.1078089,0.098693 0.1568309,0.138176 0.039201,0.029633 0.049022,0.069116 0.049022,0.1085991 0.078401,0.2072922 0.088194,0.4145844 0.00979,0.6317544 -0.019614,0.069116 -0.029408,0.148082 -0.039201,0.2270478 -0.3136618,0.3454964 -0.1568309,0.5922998 0.1568309,0.8193476 0.4410851,0.4540674 0.8037407,0.9377684 0.6763173,1.6287604 -0.039201,0.02963 -0.1078089,0.04936 -0.1274233,0.09872 -0.4116776,0.64166 -1.029208,0.750231 -1.6859391,0.602149 -0.3528625,-0.07897 -0.7155462,-0.06909 -1.0684087,-0.167809 -0.039201,-0.06909 -0.029407,-0.148054 0.029408,-0.207292 0.1372164,-0.09872 0.2940473,-0.118449 0.4508782,-0.118449 0.3920913,-0.01976 0.7841827,0.177687 1.1762458,0.01973 0.2058529,-0.108571 0.4116775,-0.21717 0.4999002,-0.454067 0.049022,-0.167838 0.029407,-0.335647 -0.039201,-0.503456 C 8.8715991,10.600153 8.7931696,10.501432 8.6853607,10.422466 8.5775518,10.3435 8.4599216,10.294139 8.3422913,10.244779 8.2736831,10.225023 8.2050749,10.195418 8.1364384,10.175663 7.8521842,10.106575 7.5385224,10.146057 7.2542682,10.047336 6.970014,9.9190097 6.6073302,9.869649 6.6073302,9.435309 7.1268449,9.0602074 7.9306138,9.3168603 8.3128838,8.6357452 8.381492,8.5172683 8.430514,8.3988197 8.4403071,8.2606154 c 0,-0.069088 0.019614,-0.1382042 0.068608,-0.1875648 0.058815,-0.05921 0.1176303,-0.1184487 0.1764454,-0.1776589 z"
     id="path221"
     inkscape:connector-curvature="0" />
  <path
     style="fill:#efb286;fill-opacity:1;fill-rule:evenodd;stroke:none"
     d="m 6.8327976,11.804452 c -0.00982,0.05924 -0.00982,0.118477 -0.019615,0.177687 -0.2744611,0.03948 -0.5587153,0.05924 -0.8331764,-0.02961 -0.00979,-0.207293 -0.019586,-0.414613 -0.039201,-0.631783 l 0.029408,-0.858802 C 6.0976369,10.382983 6.1172513,10.254657 6.1270444,10.116452 6.372098,9.9387652 6.587744,9.9782481 6.754368,10.234901 c 0.1274233,0.513306 0.2254391,1.036489 0.07843,1.569551 z"
     id="path223"
     inkscape:connector-curvature="0" />
  <path
     style="fill:#645345;fill-opacity:1;fill-rule:evenodd;stroke:none"
     d="M 9.0186369,9.8203166 C 8.7735833,9.7808337 8.4697147,9.7610781 8.4108996,9.4945474 8.3422913,9.2082894 8.6657462,9.1292954 8.861806,9.000969 c 0.00979,0.21717 -0.039229,0.4442178 0.1764171,0.6021776 -0.00979,0.069088 -0.019586,0.1480537 -0.019586,0.21717 z"
     id="path225"
     inkscape:connector-curvature="0" />
  <path
     style="fill:#ccaf94;fill-opacity:1;fill-rule:evenodd;stroke:none"
     d="M 8.9010067,8.7739212 C 8.8912136,8.566629 8.8912136,8.3593368 8.8912136,8.1421668 9.077452,8.349459 9.0872451,8.5567512 8.9010067,8.7739212 Z"
     id="path227"
     inkscape:connector-curvature="0" />
  <path
     style="fill:#615c51;fill-opacity:1;fill-rule:evenodd;stroke:none"
     d="M 8.5579373,8.5469017 C 8.3128838,9.149051 7.8815918,9.435309 7.234682,9.4057039 7.0386222,9.3958261 6.8425907,9.3859766 6.6465591,9.3760988 6.5093144,9.3267381 6.4309131,9.2477723 6.4504993,9.0898126 6.4799069,8.8627648 6.42112,8.6455948 6.3623049,8.4185752 6.2740822,8.1224112 6.323076,8.0434454 6.6367378,7.9052412 6.7641893,7.846031 6.8916127,7.7966703 7.019036,7.7374319 c 0.078401,-0.019727 0.1764171,-0.029605 0.2450536,-0.069088 0.38227,-0.21717 0.7057248,-0.148082 0.9998004,0.1678093 0.078401,0.078966 0.1568309,0.1579316 0.2450253,0.2368974 0,0.049361 0.019614,0.098721 0.039229,0.148082 0.068608,0.1085991 0.068608,0.21717 0.00979,0.3257691 z"
     id="path229"
     inkscape:connector-curvature="0" />
  <path
     style="fill:#f2a268;fill-opacity:1;fill-rule:evenodd;stroke:none"
     d="m 6.4504993,9.0898126 c 0.068637,0.098721 0.1274516,0.1875648 0.1960598,0.2862862 0.048994,0.1974144 0.166624,0.3356186 0.3724769,0.3751015 0.1274233,0.039483 0.2548467,0.078966 0.333248,0.1974427 0,0.345496 -0.2842542,0.335619 -0.4999002,0.414584 -0.078401,0.0099 -0.1568309,-0.01973 -0.2058247,-0.08884 -0.1274233,-0.197415 -0.3332762,-0.148054 -0.5195147,-0.157932 0,-0.246803 0,-0.4837003 0.00979,-0.7304754 0.00982,-0.1875649 0.1274233,-0.2764085 0.3136617,-0.296164 z"
     id="path231"
     inkscape:connector-curvature="0" />
  <path
     style="fill:#5e6358;fill-opacity:1;fill-rule:evenodd;stroke:none"
     d="m 6.6465591,10.274384 c 0.029408,0 0.058815,-0.0099 0.098016,-0.0099 0.5391009,-0.02961 1.0586155,-0.3257408 1.6173309,-0.167809 l 0.019586,0 c 0.039229,0.07897 0.029408,0.148082 -0.029408,0.21717 -0.1274233,0.276408 -0.38227,0.306013 -0.6371166,0.345496 -0.1862385,0.03951 -0.4410851,0.02963 -0.4116776,0.315892 0.019586,0.246803 0.2548467,0.276408 0.4508782,0.296135 0.2058529,0.01976 0.4018845,0 0.5881229,-0.07897 0.1862385,-0.09869 0.2548467,-0.246776 0.1568309,-0.454068 -0.049022,-0.15796 -0.2646398,-0.286286 -0.1078089,-0.493578 0.117602,-0.04936 0.2254391,-0.03948 0.3136618,0.03948 0.1764171,0.01975 0.3038405,0.09872 0.3430693,0.286258 0.1372165,0.236925 0.019586,0.513334 0.117602,0.750231 -0.098016,0.315891 -0.3528624,0.43434 -0.6273235,0.533061 -0.4018845,-0.03948 -0.7939476,-0.177687 -1.195832,-0.03948 -0.166624,-0.0099 -0.3430693,-0.0099 -0.5096933,-0.0099 C 6.5583364,11.320751 6.6759667,10.787718 6.6465591,10.274384 Z"
     id="path233"
     inkscape:connector-curvature="0" />
  <path
     style="fill:#765f4e;fill-opacity:1;fill-rule:evenodd;stroke:none"
     d="m 8.3619058,10.096697 c -0.5391291,0.08884 -1.0684369,0.276408 -1.6173309,0.167809 0.1372164,-0.227019 0.4508782,-0.118449 0.6077091,-0.315863 0.2548467,0 0.4999002,0 0.7449538,0 0.1176302,0 0.215646,0.039483 0.264668,0.148054 z"
     id="path235"
     inkscape:connector-curvature="0" />
  <path
     style="fill:#474d40;fill-opacity:1;fill-rule:evenodd;stroke:none"
     d="m 7.3424909,11.814329 c 0.5293078,-0.21717 0.7743613,-0.207292 1.195832,0.03948 -0.4116776,0.197443 -0.8037407,0.0099 -1.195832,-0.03948 z"
     id="path237"
     inkscape:connector-curvature="0" />
  <path
     style="fill:#755135;fill-opacity:1;fill-rule:evenodd;stroke:none"
     d="m 9.1656464,11.320751 c -0.1960315,-0.22702 -0.1078088,-0.49355 -0.117602,-0.750231 0.2352323,0.217198 0.215646,0.473851 0.117602,0.750231 z"
     id="path239"
     inkscape:connector-curvature="0" />
  <path
     style="fill:#765f4e;fill-opacity:1;fill-rule:evenodd;stroke:none"
     d="m 8.7049751,10.284262 c -0.1176302,0.0099 -0.2450535,0.02961 -0.3626838,0.03948 l -0.00979,0 c 0.019586,-0.06909 0.029408,-0.148082 0.048994,-0.227048 0.1470378,0 0.2548467,0.05924 0.3234831,0.187565 z"
     id="path241"
     inkscape:connector-curvature="0" />
  <path
     style="fill:#ccaf94;fill-opacity:1;fill-rule:evenodd;stroke:none"
     d="m 8.5579373,8.5469017 c 0,-0.1085991 -0.00979,-0.21717 -0.00979,-0.3257691 0.1568309,0.1085991 0.166624,0.21717 0.00979,0.3257691 z"
     id="path243"
     inkscape:connector-curvature="0" />
  <path
     style="fill:#6fa7c1;fill-opacity:1;fill-rule:evenodd;stroke:none"
     d="M 7.234682,8.9220032 C 7.18566,8.9121254 7.0386222,8.9022759 6.9308133,8.8331597 6.7837756,8.7443161 6.7053742,8.5863846 6.7151673,8.4086974 6.7249604,8.2704932 6.8327976,8.2211326 6.9406064,8.1816497 7.2542682,8.0730506 7.5777513,7.9644797 7.9208207,8.0533232 8.1364384,8.1125617 8.214868,8.3198539 8.0972378,8.5172683 7.9208207,8.8134323 7.6561527,8.931881 7.234682,8.9220032 Z"
     id="path245"
     inkscape:connector-curvature="0" />
  <path
     style="fill:#61a8c5;fill-opacity:1;fill-rule:evenodd;stroke:none"
     d="m 8.3422913,10.323745 0.3234549,0.315891 c -0.029407,0.236925 0.049022,0.493578 -0.1372164,0.700871 -0.431292,0.26653 -0.8723771,0.138204 -1.3134622,0.04936 -0.068608,-0.01975 -0.1470378,-0.09872 -0.1764454,-0.177687 -0.068608,-0.187565 -0.048994,-0.394857 0.019615,-0.582422 0.039201,-0.108571 0.1568309,-0.167809 0.2744611,-0.177687 0.3430693,-0.0099 0.6861386,0.01976 0.9998004,-0.128326 l 0.00979,0 z"
     id="path247"
     inkscape:connector-curvature="0" />
  <path
     style="fill:#8fbcd3;fill-opacity:1;fill-rule:evenodd;stroke:none"
     d="m 8.5285298,11.340507 c 0.029408,-0.236926 -0.088223,-0.503457 0.1372164,-0.700871 0.2450536,0.375101 0.2352605,0.454095 -0.1372164,0.700871 z"
     id="path249"
     inkscape:connector-curvature="0" />
  <path
     style="fill:#231f20;fill-opacity:1;fill-rule:evenodd;stroke:none"
     d="m 7.9404069,8.1224112 c -0.215646,0.078994 -0.4508782,0.1678376 -0.6763173,0.2764085 -0.058815,0.029605 -0.098044,0.1382042 -0.098044,0.21717 0.00982,0.069116 0.068636,0.1678093 0.1274233,0.1974426 0.3332762,0.1579316 0.69596,0.039483 0.8821984,-0.2764084 0.029408,-0.059238 0.029408,-0.1678093 0,-0.2369256 C 8.1364384,8.2408881 8.048244,8.2014052 7.9404069,8.1224112 M 8.0972378,1.5283116 C 8.1462598,1.2716559 7.9502,0.98538376 7.6953533,0.96563949 7.4797073,0.95577018 7.2542682,1.1235823 7.1954531,1.3604966 7.136638,1.607283 7.2836758,1.8639387 7.4993218,1.8935551 7.7639898,1.9330408 8.0580371,1.7454816 8.0972378,1.5283116 M 6.3426904,11.824207 C 7.18566,12.228942 7.9600213,12.169704 8.7245613,12.149948 9.5773522,12.120343 10.018437,11.340507 9.6851611,10.56067 9.5479447,10.244779 9.3224773,10.057214 9.02843,9.9091601 8.861806,9.8301661 8.7245613,9.7018397 8.5383229,9.5735132 8.7147682,9.3069826 8.8715991,9.1095681 8.9990224,8.8923981 9.1852609,8.5962623 9.1460602,8.4481803 8.8225771,8.0335677 8.9206211,8.566629 8.7833764,8.9417588 8.4207209,9.2378946 8.0972378,9.4945474 7.7345822,9.4945474 7.3621053,9.4747919 6.8425907,9.4649423 6.7053742,9.3464654 6.587744,8.8627648 6.5583364,8.7541939 6.538722,8.6357452 6.5191358,8.5271461 6.4701138,8.1520446 6.538722,7.9940848 6.8916127,7.846031 7.1954531,7.7177046 7.5189362,7.628861 7.8423911,7.5103841 7.3032902,7.4412961 6.8327976,7.6189832 6.3917124,7.8756361 6.2250602,7.9644797 6.1858596,8.132289 6.1858596,8.3198539 c 0.039201,0.8489244 0.058815,1.7077551 0.098016,2.5665571 0.00979,0.315891 0.039201,0.621905 0.058815,0.937796 m 6.9005876,1.688 c 0,-0.16781 0.0392,-0.345497 -0.0098,-0.493551 -0.09802,-0.296164 -0.215646,-0.592299 -0.382299,-0.85883 C 12.47871,11.557677 12.106261,10.935772 11.655354,10.373105 11.126047,9.7117174 10.920222,8.9614861 10.890814,8.1421668 10.851586,7.0661663 10.616353,6.0395548 10.25367,5.0326706 10.116453,4.6279357 9.9596222,4.2034734 9.7243618,3.857977 9.1852609,3.1077457 8.597138,2.3969972 7.5189362,2.5154544 7.1464593,2.3673836 6.8622051,2.5351958 6.5779509,2.7523686 5.4114982,3.640807 4.5489424,4.7760177 4.0588353,6.1580034 3.7255591,7.1056774 3.50012,8.0928061 3.5295276,9.1095681 3.549142,9.7215952 3.3236747,10.234901 2.902204,10.659363 2.7845766,10.787718 2.666952,10.916044 2.5493274,11.034493 1.9121995,11.656398 1.5593286,12.436234 1.26527,13.245676 c -0.049008,0.118477 0,0.256681 0.0098,0.444218 0.4802971,-0.04936 0.8135649,-0.256653 1.1468326,-0.473823 0.4018703,-0.246775 0.8233692,-0.414585 1.2840688,-0.444218 0.7939475,-0.03948 1.5977164,-0.04936 2.391664,-0.06909 0.264668,-0.0099 0.5391009,-0.01976 0.8037689,-0.02961 C 6.7935687,12.584316 6.6857598,12.574439 6.5779509,12.554683 5.8427902,12.416479 5.7839751,12.337513 5.7447744,11.607037 5.6957524,10.40271 5.8721978,9.1984117 5.6075298,7.9940848 5.558536,7.7571874 5.6761662,7.5301397 5.9016053,7.4215406 6.6367378,7.0859219 7.4110991,6.8885074 8.2344824,7.0266834 9.02843,7.1648877 10.008616,8.2408881 9.5479447,9.1589288 c -0.049022,0.088843 -0.039229,0.21717 -0.049022,0.2961358 0.215646,0.286258 0.4214989,0.5231835 0.5783293,0.7897144 0.568509,0.927918 0.323455,1.78672 -0.6273513,2.319782 -0.1078089,0.05924 -0.2940474,0.03948 -0.2450254,0.256653 1.0782017,0.108599 2.1564317,0.227047 3.1660257,0.661387 0.254846,0.1086 0.539101,0.16781 0.872377,0.02961 m -5.8321789,9.269278 c 0,-0.01976 0,-0.03948 0.00982,-0.05924 0.3136618,0 0.6273236,0.0099 0.9409854,0 1.2056251,-0.02961 2.2740342,-0.38498 3.1954332,-1.214177 0.637116,-0.582422 1.11743,-1.24381 1.440885,-2.013768 0.617531,-1.411619 0.695932,-2.882449 0.284254,-4.373034 -0.11763,-0.414612 -0.352862,-0.740353 -0.715546,-0.927918 -0.431292,-0.21717 -0.88217,-0.444218 -1.34287,-0.523184 -0.980186,-0.177687 -1.979986,-0.325769 -2.9699933,-0.375129 -1.0782018,-0.03948 -2.1662249,0.03948 -3.2444549,0.06912 -0.2548467,0 -0.5194865,0.02961 -0.7743331,0 -0.9017847,-0.108599 -1.627141,0.296136 -2.2446629,0.858802 -0.7351494,0.681143 -1.16643578,1.559701 -1.19584051,2.586313 -0.009802,0.463973 0.009802,0.927918 0,1.382014 -0.019606,0.848924 0.34306651,1.56955 0.78415731,2.240788 0.284257,0.42449 0.6371279,0.819347 1.1076206,1.066122 0.882173,0.473823 1.7643432,0.957524 2.773965,1.08585 0.6469098,0.08884 1.3036691,0.138205 1.9505789,0.197443 M 1.0104205,14.371037 C 0.4321048,13.956424 0.48111269,13.462846 0.67715271,12.94954 1.0398252,11.992017 1.5299238,11.123337 2.2748748,10.422466 2.6767536,10.047336 2.8335958,9.6228739 2.8630033,9.0602074 3.0100129,6.6219768 3.8431893,4.4798537 5.6271442,2.7622379 5.7153669,2.6832665 5.7839751,2.5845536 5.8819909,2.5253265 6.3524836,2.2390544 6.5681296,1.8639387 6.6269447,1.2716559 6.6955529,0.42271167 7.56793,0.14631254 8.214868,0.67937021 8.4991222,0.91628447 8.6755676,1.2124259 8.6853607,1.5776694 c 0,0.4343428 0.166624,0.76997 0.4999002,1.0364978 1.0684091,0.799592 1.5487231,1.95453 1.9211991,3.1786125 0.26464,0.9180406 0.392064,1.8558086 0.460672,2.8034826 0.03923,0.6317545 0.274461,1.154938 0.637145,1.6583947 0.431263,0.602149 0.842969,1.224054 1.235032,1.855808 0.176446,0.286286 0.294076,0.621905 0.421499,0.937796 0.156831,0.38498 0.215646,0.779837 -0.02941,1.154967 -0.156831,0.236897 -0.127424,0.49355 -0.02941,0.740353 0.548894,1.391864 0.333276,2.764 -0.05881,4.136108 C 13.2923,20.609757 12.3317,21.764723 10.998623,22.584042 10.361507,22.978899 9.6361391,23.215825 8.8912136,23.255308 7.9502,23.294791 7.0092147,23.324396 6.0682293,23.235581 4.8723973,23.107226 3.7549667,22.663036 2.6963596,22.070737 1.6769532,21.50807 0.96140976,20.688751 0.5301234,19.602873 0.33408338,19.119172 0.21646021,18.625622 0.23606421,18.102438 c 0.009802,-0.345496 0.009802,-0.691021 0,-1.036517 -0.009802,-0.937768 0.14702988,-1.826204 0.77435629,-2.694884 z"
     id="path251"
     inkscape:connector-curvature="0" />
  <path
     style="fill:#231f20;fill-opacity:1;fill-rule:evenodd;stroke:none"
     d="m 7.1170518,20.274138 c -0.00982,-0.04936 -0.00982,-0.118449 -0.029408,-0.167809 -0.019614,-0.03948 -0.068608,-0.118449 -0.098016,-0.118449 -0.07843,0 -0.1568308,0.01973 -0.2254391,0.04933 -0.049022,0.02963 -0.07843,0.08884 -0.098044,0.138204 -0.098016,0.197442 -0.2450253,0.404735 -0.048994,0.612027 0.048994,0.04936 0.166624,0.07899 0.2254391,0.05924 0.2548466,-0.108571 0.2548466,-0.345496 0.2744611,-0.572544 m -1.2742616,-0.07897 c 0.049022,-0.562666 0.07843,-1.046367 0.3724769,-1.460979 0.3430693,-0.483701 0.7939476,-0.523184 1.2252396,-0.108571 0.7351606,0.730475 0.6273235,2.122339 -0.2254391,2.724517 -0.431292,0.296135 -1.0390012,0.07897 -1.2350609,-0.473852 C 5.8918122,20.63939 5.8721978,20.372859 5.8427902,20.195172 Z"
     id="path253"
     inkscape:connector-curvature="0" />
  <path
     style="fill:#231f20;fill-opacity:1;fill-rule:evenodd;stroke:none"
     d="m 4.57835,15.318683 c -0.1862384,-0.03948 -0.264668,0.06912 -0.2940756,0.227048 -0.088223,0.424462 -0.048994,0.848952 0.068608,1.273414 0.068608,0.266531 0.1764453,0.54294 0.019614,0.898286 C 4.2352807,17.638465 4.0686284,17.60886 4.0294278,17.510138 3.715766,16.759907 3.5981358,15.970193 3.7451736,15.160751 c 0.019586,-0.08884 0.058815,-0.167809 0.1078088,-0.236925 0.2450536,-0.325741 0.6175305,-0.404735 0.9802143,-0.463945 0.3528624,-0.05924 0.6763173,0.01973 0.9213709,0.384979 -0.1568309,0.148082 -0.3626556,0.246775 -0.4116776,0.404735 -0.088223,0.26653 -0.088223,0.562666 -0.1274233,0.878558 0.1274233,0.08884 0.2450535,0.157931 0.3528624,0.236897 0.2058529,0.15796 0.2450536,0.37513 0.2058529,0.612027 -0.029408,0.246803 -0.1372447,0.444218 -0.38227,0.513334 C 5.2056736,17.549621 4.9998207,17.401567 4.8723973,17.135037 4.695952,16.769785 4.57835,16.384805 4.6469582,15.970193 c 0.039201,-0.21717 0.117602,-0.454068 -0.068608,-0.65151 z"
     id="path255"
     inkscape:connector-curvature="0" />
  <path
     style="fill:#231f20;fill-opacity:1;fill-rule:evenodd;stroke:none"
     d="m 9.8811927,17.204125 c -0.078401,0.02961 -0.1568309,0.07897 -0.2450536,0.08884 -0.3528624,0.03948 -0.5880947,-0.108571 -0.6077091,-0.414584 -0.00979,-0.256681 0.039201,-0.503456 0.07843,-0.760109 0.068608,-0.473823 0.1568308,-0.947646 0.2548466,-1.52019 0.088195,-0.02963 0.2646398,-0.15796 0.4410851,-0.148082 0.2744607,0.01975 0.5685087,0.07897 0.8037687,0.21717 0.38227,0.227048 0.490079,0.621905 0.372449,1.046367 -0.156831,0.542939 -0.333248,1.08585 -0.509693,1.628789 -0.01959,0.07897 -0.0784,0.157932 -0.127424,0.227048 -0.127423,0.177687 -0.3528622,0.128326 -0.450878,-0.118449 -0.029408,-0.06912 -0.00982,-0.167837 -0.019614,-0.246803 0.058815,-0.177687 0.1176302,-0.345497 0.1764454,-0.523184 0.127423,-0.335618 0.26464,-0.681115 0.392063,-1.016762 0.02941,-0.108571 0.0392,-0.227048 0.01961,-0.335618 -0.02941,-0.148082 -0.127423,-0.276409 -0.284254,-0.246776 -0.08822,0.01973 -0.2254389,0.118449 -0.2254389,0.197415 -0.029408,0.246775 -0.00982,0.493578 0,0.750231 0.019586,0.21717 0.068608,0.43434 0.098016,0.65151 -0.058815,0.177687 -0.1176303,0.355374 -0.1666523,0.523184 z"
     id="path257"
     inkscape:connector-curvature="0" />
  <path
     style="fill:#231f20;fill-opacity:1;fill-rule:evenodd;stroke:none"
     d="m 8.048244,11.488589 c 0.166624,-0.01976 0.3136618,-0.01976 0.4508782,-0.04936 0.2058529,-0.04936 0.3528625,-0.177687 0.3920914,-0.394857 0.039201,-0.187565 -0.1764454,-0.444218 -0.431292,-0.444218 -0.2842543,-0.0099 -0.5685085,0.02961 -0.8429696,0.108571 -0.098016,0.01975 -0.215646,0.197443 -0.2254391,0.306013 0,0.118477 0.088194,0.286287 0.1862384,0.345497 0.1372165,0.08884 0.3234549,0.08884 0.4704927,0.128355 m 0.058787,-1.441253 c 0.2940755,-0.1085708 0.6273518,0.01976 0.9508067,0.256681 0.3234548,0.236898 0.5293077,0.523184 0.431292,0.947646 -0.088223,0.394857 -0.3626838,0.661388 -0.7449538,0.750231 -0.5391009,0.128327 -1.07823,0.04936 -1.5879234,-0.167809 -0.1372164,-0.05924 -0.2940473,-0.236926 -0.3136617,-0.37513 -0.049022,-0.306013 -0.039201,-0.631754 -0.019614,-0.937768 0.019614,-0.227048 0.215646,-0.345524 0.4214989,-0.385007 0.2548467,-0.04933 0.5096933,-0.05921 0.8625558,-0.08884 z"
     id="path259"
     inkscape:connector-curvature="0" />
  <path
     style="fill:#ffffff;fill-opacity:1;fill-rule:evenodd;stroke:none"
     d="m 10.047845,16.680941 c -0.058815,0.177687 -0.1176303,0.345497 -0.1764454,0.523184 l 0.00979,0 c 0.058815,-0.16781 0.1078371,-0.345497 0.1666523,-0.523184 l 0,0 z"
     id="path261"
     inkscape:connector-curvature="0" />
</svg>
